%TF.GenerationSoftware,KiCad,Pcbnew,10.0.5*%
%TF.CreationDate,2026-07-27T13:36:03-04:00*%
%TF.ProjectId,pumpkin-keychain,70756d70-6b69-46e2-9d6b-657963686169,B*%
%TF.SameCoordinates,Original*%
%TF.FileFunction,Soldermask,Top*%
%TF.FilePolarity,Negative*%
%FSLAX46Y46*%
G04 Gerber Fmt 4.6, Leading zero omitted, Abs format (unit mm)*
G04 Created by KiCad (PCBNEW 10.0.5) date 2026-07-27 13:36:03*
%MOMM*%
%LPD*%
G01*
G04 APERTURE LIST*
G04 APERTURE END LIST*
G36*
X77748858Y-90905133D02*
G01*
X77758316Y-90905133D01*
X77785563Y-90912433D01*
X77854099Y-90926066D01*
X77886448Y-90939465D01*
X77909610Y-90945672D01*
X77930377Y-90957662D01*
X77962722Y-90971060D01*
X78020816Y-91009877D01*
X78045257Y-91023988D01*
X78051946Y-91030677D01*
X78060481Y-91036380D01*
X78143619Y-91119518D01*
X78149321Y-91128052D01*
X78156012Y-91134743D01*
X78170124Y-91159186D01*
X78208939Y-91217277D01*
X78222335Y-91249618D01*
X78234328Y-91270390D01*
X78240535Y-91293555D01*
X78253933Y-91325900D01*
X78267563Y-91394426D01*
X78274867Y-91421684D01*
X78275791Y-91435795D01*
X78277110Y-91442422D01*
X78279758Y-91496311D01*
X78280000Y-91500000D01*
X78280000Y-92100000D01*
X78279758Y-92103691D01*
X78277110Y-92157577D01*
X78275791Y-92164203D01*
X78274867Y-92178316D01*
X78267562Y-92205576D01*
X78253933Y-92274099D01*
X78240535Y-92306441D01*
X78234328Y-92329610D01*
X78222334Y-92350383D01*
X78208939Y-92382722D01*
X78170128Y-92440805D01*
X78156012Y-92465257D01*
X78149319Y-92471949D01*
X78143619Y-92480481D01*
X78060481Y-92563619D01*
X78051949Y-92569319D01*
X78045257Y-92576012D01*
X78020805Y-92590128D01*
X77962722Y-92628939D01*
X77930383Y-92642334D01*
X77909610Y-92654328D01*
X77886441Y-92660535D01*
X77854099Y-92673933D01*
X77785569Y-92687564D01*
X77758316Y-92694867D01*
X77748858Y-92694867D01*
X77738788Y-92696870D01*
X77621212Y-92696870D01*
X77611142Y-92694867D01*
X77601684Y-92694867D01*
X77574432Y-92687564D01*
X77505900Y-92673933D01*
X77473555Y-92660535D01*
X77450390Y-92654328D01*
X77429618Y-92642335D01*
X77397277Y-92628939D01*
X77339186Y-92590124D01*
X77314743Y-92576012D01*
X77308052Y-92569321D01*
X77299518Y-92563619D01*
X77216380Y-92480481D01*
X77210677Y-92471946D01*
X77203988Y-92465257D01*
X77189877Y-92440816D01*
X77151060Y-92382722D01*
X77137662Y-92350377D01*
X77125672Y-92329610D01*
X77119465Y-92306448D01*
X77106066Y-92274099D01*
X77092433Y-92205562D01*
X77085133Y-92178316D01*
X77084208Y-92164210D01*
X77082889Y-92157577D01*
X77080241Y-92103686D01*
X77080000Y-92100000D01*
X77080000Y-91500000D01*
X77080241Y-91496316D01*
X77082889Y-91442422D01*
X77084208Y-91435787D01*
X77085133Y-91421684D01*
X77092432Y-91394440D01*
X77106066Y-91325900D01*
X77119466Y-91293548D01*
X77125672Y-91270390D01*
X77137660Y-91249624D01*
X77151060Y-91217277D01*
X77189881Y-91159175D01*
X77203988Y-91134743D01*
X77210675Y-91128055D01*
X77216380Y-91119518D01*
X77299518Y-91036380D01*
X77308055Y-91030675D01*
X77314743Y-91023988D01*
X77339175Y-91009881D01*
X77397277Y-90971060D01*
X77429624Y-90957660D01*
X77450390Y-90945672D01*
X77473548Y-90939466D01*
X77505900Y-90926066D01*
X77574437Y-90912433D01*
X77601684Y-90905133D01*
X77611142Y-90905133D01*
X77621212Y-90903130D01*
X77738788Y-90903130D01*
X77748858Y-90905133D01*
G37*
G36*
X86388858Y-90905133D02*
G01*
X86398316Y-90905133D01*
X86425563Y-90912433D01*
X86494099Y-90926066D01*
X86526448Y-90939465D01*
X86549610Y-90945672D01*
X86570377Y-90957662D01*
X86602722Y-90971060D01*
X86660816Y-91009877D01*
X86685257Y-91023988D01*
X86691946Y-91030677D01*
X86700481Y-91036380D01*
X86783619Y-91119518D01*
X86789321Y-91128052D01*
X86796012Y-91134743D01*
X86810124Y-91159186D01*
X86848939Y-91217277D01*
X86862335Y-91249618D01*
X86874328Y-91270390D01*
X86880535Y-91293555D01*
X86893933Y-91325900D01*
X86907563Y-91394426D01*
X86914867Y-91421684D01*
X86915791Y-91435795D01*
X86917110Y-91442422D01*
X86919758Y-91496311D01*
X86920000Y-91500000D01*
X86920000Y-92100000D01*
X86919758Y-92103691D01*
X86917110Y-92157577D01*
X86915791Y-92164203D01*
X86914867Y-92178316D01*
X86907562Y-92205576D01*
X86893933Y-92274099D01*
X86880535Y-92306441D01*
X86874328Y-92329610D01*
X86862334Y-92350383D01*
X86848939Y-92382722D01*
X86810128Y-92440805D01*
X86796012Y-92465257D01*
X86789319Y-92471949D01*
X86783619Y-92480481D01*
X86700481Y-92563619D01*
X86691949Y-92569319D01*
X86685257Y-92576012D01*
X86660805Y-92590128D01*
X86602722Y-92628939D01*
X86570383Y-92642334D01*
X86549610Y-92654328D01*
X86526441Y-92660535D01*
X86494099Y-92673933D01*
X86425569Y-92687564D01*
X86398316Y-92694867D01*
X86388858Y-92694867D01*
X86378788Y-92696870D01*
X86261212Y-92696870D01*
X86251142Y-92694867D01*
X86241684Y-92694867D01*
X86214432Y-92687564D01*
X86145900Y-92673933D01*
X86113555Y-92660535D01*
X86090390Y-92654328D01*
X86069618Y-92642335D01*
X86037277Y-92628939D01*
X85979186Y-92590124D01*
X85954743Y-92576012D01*
X85948052Y-92569321D01*
X85939518Y-92563619D01*
X85856380Y-92480481D01*
X85850677Y-92471946D01*
X85843988Y-92465257D01*
X85829877Y-92440816D01*
X85791060Y-92382722D01*
X85777662Y-92350377D01*
X85765672Y-92329610D01*
X85759465Y-92306448D01*
X85746066Y-92274099D01*
X85732433Y-92205562D01*
X85725133Y-92178316D01*
X85724208Y-92164210D01*
X85722889Y-92157577D01*
X85720241Y-92103686D01*
X85720000Y-92100000D01*
X85720000Y-91500000D01*
X85720241Y-91496316D01*
X85722889Y-91442422D01*
X85724208Y-91435787D01*
X85725133Y-91421684D01*
X85732432Y-91394440D01*
X85746066Y-91325900D01*
X85759466Y-91293548D01*
X85765672Y-91270390D01*
X85777660Y-91249624D01*
X85791060Y-91217277D01*
X85829881Y-91159175D01*
X85843988Y-91134743D01*
X85850675Y-91128055D01*
X85856380Y-91119518D01*
X85939518Y-91036380D01*
X85948055Y-91030675D01*
X85954743Y-91023988D01*
X85979175Y-91009881D01*
X86037277Y-90971060D01*
X86069624Y-90957660D01*
X86090390Y-90945672D01*
X86113548Y-90939466D01*
X86145900Y-90926066D01*
X86214437Y-90912433D01*
X86241684Y-90905133D01*
X86251142Y-90905133D01*
X86261212Y-90903130D01*
X86378788Y-90903130D01*
X86388858Y-90905133D01*
G37*
G36*
X77748858Y-87105133D02*
G01*
X77758316Y-87105133D01*
X77785563Y-87112433D01*
X77854099Y-87126066D01*
X77886448Y-87139465D01*
X77909610Y-87145672D01*
X77930377Y-87157662D01*
X77962722Y-87171060D01*
X78020816Y-87209877D01*
X78045257Y-87223988D01*
X78051946Y-87230677D01*
X78060481Y-87236380D01*
X78143619Y-87319518D01*
X78149321Y-87328052D01*
X78156012Y-87334743D01*
X78170124Y-87359186D01*
X78208939Y-87417277D01*
X78222335Y-87449618D01*
X78234328Y-87470390D01*
X78240535Y-87493555D01*
X78253933Y-87525900D01*
X78267563Y-87594426D01*
X78274867Y-87621684D01*
X78275791Y-87635795D01*
X78277110Y-87642422D01*
X78279758Y-87696311D01*
X78280000Y-87700000D01*
X78280000Y-88300000D01*
X78279758Y-88303691D01*
X78277110Y-88357577D01*
X78275791Y-88364203D01*
X78274867Y-88378316D01*
X78267562Y-88405576D01*
X78253933Y-88474099D01*
X78240535Y-88506441D01*
X78234328Y-88529610D01*
X78222334Y-88550383D01*
X78208939Y-88582722D01*
X78170128Y-88640805D01*
X78156012Y-88665257D01*
X78149319Y-88671949D01*
X78143619Y-88680481D01*
X78060481Y-88763619D01*
X78051949Y-88769319D01*
X78045257Y-88776012D01*
X78020805Y-88790128D01*
X77962722Y-88828939D01*
X77930383Y-88842334D01*
X77909610Y-88854328D01*
X77886441Y-88860535D01*
X77854099Y-88873933D01*
X77785569Y-88887564D01*
X77758316Y-88894867D01*
X77748858Y-88894867D01*
X77738788Y-88896870D01*
X77621212Y-88896870D01*
X77611142Y-88894867D01*
X77601684Y-88894867D01*
X77574432Y-88887564D01*
X77505900Y-88873933D01*
X77473555Y-88860535D01*
X77450390Y-88854328D01*
X77429618Y-88842335D01*
X77397277Y-88828939D01*
X77339186Y-88790124D01*
X77314743Y-88776012D01*
X77308052Y-88769321D01*
X77299518Y-88763619D01*
X77216380Y-88680481D01*
X77210677Y-88671946D01*
X77203988Y-88665257D01*
X77189877Y-88640816D01*
X77151060Y-88582722D01*
X77137662Y-88550377D01*
X77125672Y-88529610D01*
X77119465Y-88506448D01*
X77106066Y-88474099D01*
X77092433Y-88405562D01*
X77085133Y-88378316D01*
X77084208Y-88364210D01*
X77082889Y-88357577D01*
X77080241Y-88303686D01*
X77080000Y-88300000D01*
X77080000Y-87700000D01*
X77080241Y-87696316D01*
X77082889Y-87642422D01*
X77084208Y-87635787D01*
X77085133Y-87621684D01*
X77092432Y-87594440D01*
X77106066Y-87525900D01*
X77119466Y-87493548D01*
X77125672Y-87470390D01*
X77137660Y-87449624D01*
X77151060Y-87417277D01*
X77189881Y-87359175D01*
X77203988Y-87334743D01*
X77210675Y-87328055D01*
X77216380Y-87319518D01*
X77299518Y-87236380D01*
X77308055Y-87230675D01*
X77314743Y-87223988D01*
X77339175Y-87209881D01*
X77397277Y-87171060D01*
X77429624Y-87157660D01*
X77450390Y-87145672D01*
X77473548Y-87139466D01*
X77505900Y-87126066D01*
X77574437Y-87112433D01*
X77601684Y-87105133D01*
X77611142Y-87105133D01*
X77621212Y-87103130D01*
X77738788Y-87103130D01*
X77748858Y-87105133D01*
G37*
G36*
X86388858Y-87105133D02*
G01*
X86398316Y-87105133D01*
X86425563Y-87112433D01*
X86494099Y-87126066D01*
X86526448Y-87139465D01*
X86549610Y-87145672D01*
X86570377Y-87157662D01*
X86602722Y-87171060D01*
X86660816Y-87209877D01*
X86685257Y-87223988D01*
X86691946Y-87230677D01*
X86700481Y-87236380D01*
X86783619Y-87319518D01*
X86789321Y-87328052D01*
X86796012Y-87334743D01*
X86810124Y-87359186D01*
X86848939Y-87417277D01*
X86862335Y-87449618D01*
X86874328Y-87470390D01*
X86880535Y-87493555D01*
X86893933Y-87525900D01*
X86907563Y-87594426D01*
X86914867Y-87621684D01*
X86915791Y-87635795D01*
X86917110Y-87642422D01*
X86919758Y-87696311D01*
X86920000Y-87700000D01*
X86920000Y-88300000D01*
X86919758Y-88303691D01*
X86917110Y-88357577D01*
X86915791Y-88364203D01*
X86914867Y-88378316D01*
X86907562Y-88405576D01*
X86893933Y-88474099D01*
X86880535Y-88506441D01*
X86874328Y-88529610D01*
X86862334Y-88550383D01*
X86848939Y-88582722D01*
X86810128Y-88640805D01*
X86796012Y-88665257D01*
X86789319Y-88671949D01*
X86783619Y-88680481D01*
X86700481Y-88763619D01*
X86691949Y-88769319D01*
X86685257Y-88776012D01*
X86660805Y-88790128D01*
X86602722Y-88828939D01*
X86570383Y-88842334D01*
X86549610Y-88854328D01*
X86526441Y-88860535D01*
X86494099Y-88873933D01*
X86425569Y-88887564D01*
X86398316Y-88894867D01*
X86388858Y-88894867D01*
X86378788Y-88896870D01*
X86261212Y-88896870D01*
X86251142Y-88894867D01*
X86241684Y-88894867D01*
X86214432Y-88887564D01*
X86145900Y-88873933D01*
X86113555Y-88860535D01*
X86090390Y-88854328D01*
X86069618Y-88842335D01*
X86037277Y-88828939D01*
X85979186Y-88790124D01*
X85954743Y-88776012D01*
X85948052Y-88769321D01*
X85939518Y-88763619D01*
X85856380Y-88680481D01*
X85850677Y-88671946D01*
X85843988Y-88665257D01*
X85829877Y-88640816D01*
X85791060Y-88582722D01*
X85777662Y-88550377D01*
X85765672Y-88529610D01*
X85759465Y-88506448D01*
X85746066Y-88474099D01*
X85732433Y-88405562D01*
X85725133Y-88378316D01*
X85724208Y-88364210D01*
X85722889Y-88357577D01*
X85720241Y-88303686D01*
X85720000Y-88300000D01*
X85720000Y-87700000D01*
X85720241Y-87696316D01*
X85722889Y-87642422D01*
X85724208Y-87635787D01*
X85725133Y-87621684D01*
X85732432Y-87594440D01*
X85746066Y-87525900D01*
X85759466Y-87493548D01*
X85765672Y-87470390D01*
X85777660Y-87449624D01*
X85791060Y-87417277D01*
X85829881Y-87359175D01*
X85843988Y-87334743D01*
X85850675Y-87328055D01*
X85856380Y-87319518D01*
X85939518Y-87236380D01*
X85948055Y-87230675D01*
X85954743Y-87223988D01*
X85979175Y-87209881D01*
X86037277Y-87171060D01*
X86069624Y-87157660D01*
X86090390Y-87145672D01*
X86113548Y-87139466D01*
X86145900Y-87126066D01*
X86214437Y-87112433D01*
X86241684Y-87105133D01*
X86251142Y-87105133D01*
X86261212Y-87103130D01*
X86378788Y-87103130D01*
X86388858Y-87105133D01*
G37*
G36*
X79454047Y-87270805D02*
G01*
X79505408Y-87276764D01*
X79522954Y-87284511D01*
X79545671Y-87289030D01*
X79569991Y-87305280D01*
X79590793Y-87314465D01*
X79605000Y-87328672D01*
X79626777Y-87343223D01*
X79641327Y-87364999D01*
X79655534Y-87379206D01*
X79664718Y-87400006D01*
X79680970Y-87424329D01*
X79685489Y-87447048D01*
X79693235Y-87464591D01*
X79699192Y-87515940D01*
X79700000Y-87520000D01*
X79700000Y-88320000D01*
X79699192Y-88324059D01*
X79693235Y-88375408D01*
X79685489Y-88392950D01*
X79680970Y-88415671D01*
X79664716Y-88439995D01*
X79655534Y-88460793D01*
X79641329Y-88474997D01*
X79626777Y-88496777D01*
X79604997Y-88511329D01*
X79590793Y-88525534D01*
X79569995Y-88534716D01*
X79545671Y-88550970D01*
X79522950Y-88555489D01*
X79505408Y-88563235D01*
X79454061Y-88569192D01*
X79450000Y-88570000D01*
X79050000Y-88570000D01*
X79045941Y-88569192D01*
X78994591Y-88563235D01*
X78977048Y-88555489D01*
X78954329Y-88550970D01*
X78930006Y-88534718D01*
X78909206Y-88525534D01*
X78894999Y-88511327D01*
X78873223Y-88496777D01*
X78858672Y-88475000D01*
X78844465Y-88460793D01*
X78835280Y-88439991D01*
X78819030Y-88415671D01*
X78814511Y-88392954D01*
X78806764Y-88375408D01*
X78800805Y-88324049D01*
X78800000Y-88320000D01*
X78800000Y-87520000D01*
X78800804Y-87515953D01*
X78806764Y-87464591D01*
X78814511Y-87447043D01*
X78819030Y-87424329D01*
X78835278Y-87400010D01*
X78844465Y-87379206D01*
X78858674Y-87364996D01*
X78873223Y-87343223D01*
X78894996Y-87328674D01*
X78909206Y-87314465D01*
X78930010Y-87305278D01*
X78954329Y-87289030D01*
X78977043Y-87284511D01*
X78994591Y-87276764D01*
X79045952Y-87270805D01*
X79050000Y-87270000D01*
X79450000Y-87270000D01*
X79454047Y-87270805D01*
G37*
G36*
X80674047Y-87270805D02*
G01*
X80723118Y-87276498D01*
X80739883Y-87283900D01*
X80761844Y-87288269D01*
X80785354Y-87303978D01*
X80805142Y-87312715D01*
X80818656Y-87326229D01*
X80839706Y-87340294D01*
X80853770Y-87361343D01*
X80867284Y-87374857D01*
X80876020Y-87394643D01*
X80891731Y-87418156D01*
X80896099Y-87440118D01*
X80903501Y-87456881D01*
X80909192Y-87505942D01*
X80910000Y-87510000D01*
X80910000Y-88330000D01*
X80909192Y-88334059D01*
X80903501Y-88383118D01*
X80896099Y-88399879D01*
X80891731Y-88421844D01*
X80876019Y-88445358D01*
X80867284Y-88465142D01*
X80853772Y-88478653D01*
X80839706Y-88499706D01*
X80818653Y-88513772D01*
X80805142Y-88527284D01*
X80785358Y-88536019D01*
X80761844Y-88551731D01*
X80739879Y-88556099D01*
X80723118Y-88563501D01*
X80674059Y-88569192D01*
X80670000Y-88570000D01*
X80290000Y-88570000D01*
X80285942Y-88569192D01*
X80236881Y-88563501D01*
X80220118Y-88556099D01*
X80198156Y-88551731D01*
X80174643Y-88536020D01*
X80154857Y-88527284D01*
X80141343Y-88513770D01*
X80120294Y-88499706D01*
X80106229Y-88478656D01*
X80092715Y-88465142D01*
X80083978Y-88445354D01*
X80068269Y-88421844D01*
X80063900Y-88399883D01*
X80056498Y-88383118D01*
X80050805Y-88334047D01*
X80050000Y-88330000D01*
X80050000Y-87510000D01*
X80050804Y-87505954D01*
X80056498Y-87456881D01*
X80063901Y-87440114D01*
X80068269Y-87418156D01*
X80083976Y-87394647D01*
X80092715Y-87374857D01*
X80106231Y-87361340D01*
X80120294Y-87340294D01*
X80141340Y-87326231D01*
X80154857Y-87312715D01*
X80174647Y-87303976D01*
X80198156Y-87288269D01*
X80220114Y-87283901D01*
X80236881Y-87276498D01*
X80285954Y-87270804D01*
X80290000Y-87270000D01*
X80670000Y-87270000D01*
X80674047Y-87270805D01*
G37*
G36*
X81761104Y-87287127D02*
G01*
X81834099Y-87335901D01*
X81882873Y-87408896D01*
X81900000Y-87495000D01*
X81900000Y-88345000D01*
X81882873Y-88431104D01*
X81834099Y-88504099D01*
X81761104Y-88552873D01*
X81675000Y-88570000D01*
X81325000Y-88570000D01*
X81238896Y-88552873D01*
X81165901Y-88504099D01*
X81117127Y-88431104D01*
X81100000Y-88345000D01*
X81100000Y-87495000D01*
X81117127Y-87408896D01*
X81165901Y-87335901D01*
X81238896Y-87287127D01*
X81325000Y-87270000D01*
X81675000Y-87270000D01*
X81761104Y-87287127D01*
G37*
G36*
X82761104Y-87287127D02*
G01*
X82834099Y-87335901D01*
X82882873Y-87408896D01*
X82900000Y-87495000D01*
X82900000Y-88345000D01*
X82882873Y-88431104D01*
X82834099Y-88504099D01*
X82761104Y-88552873D01*
X82675000Y-88570000D01*
X82325000Y-88570000D01*
X82238896Y-88552873D01*
X82165901Y-88504099D01*
X82117127Y-88431104D01*
X82100000Y-88345000D01*
X82100000Y-87495000D01*
X82117127Y-87408896D01*
X82165901Y-87335901D01*
X82238896Y-87287127D01*
X82325000Y-87270000D01*
X82675000Y-87270000D01*
X82761104Y-87287127D01*
G37*
G36*
X83714047Y-87270805D02*
G01*
X83763118Y-87276498D01*
X83779883Y-87283900D01*
X83801844Y-87288269D01*
X83825354Y-87303978D01*
X83845142Y-87312715D01*
X83858656Y-87326229D01*
X83879706Y-87340294D01*
X83893770Y-87361343D01*
X83907284Y-87374857D01*
X83916020Y-87394643D01*
X83931731Y-87418156D01*
X83936099Y-87440118D01*
X83943501Y-87456881D01*
X83949192Y-87505942D01*
X83950000Y-87510000D01*
X83950000Y-88330000D01*
X83949192Y-88334059D01*
X83943501Y-88383118D01*
X83936099Y-88399879D01*
X83931731Y-88421844D01*
X83916019Y-88445358D01*
X83907284Y-88465142D01*
X83893772Y-88478653D01*
X83879706Y-88499706D01*
X83858653Y-88513772D01*
X83845142Y-88527284D01*
X83825358Y-88536019D01*
X83801844Y-88551731D01*
X83779879Y-88556099D01*
X83763118Y-88563501D01*
X83714059Y-88569192D01*
X83710000Y-88570000D01*
X83330000Y-88570000D01*
X83325942Y-88569192D01*
X83276881Y-88563501D01*
X83260118Y-88556099D01*
X83238156Y-88551731D01*
X83214643Y-88536020D01*
X83194857Y-88527284D01*
X83181343Y-88513770D01*
X83160294Y-88499706D01*
X83146229Y-88478656D01*
X83132715Y-88465142D01*
X83123978Y-88445354D01*
X83108269Y-88421844D01*
X83103900Y-88399883D01*
X83096498Y-88383118D01*
X83090805Y-88334047D01*
X83090000Y-88330000D01*
X83090000Y-87510000D01*
X83090804Y-87505954D01*
X83096498Y-87456881D01*
X83103901Y-87440114D01*
X83108269Y-87418156D01*
X83123976Y-87394647D01*
X83132715Y-87374857D01*
X83146231Y-87361340D01*
X83160294Y-87340294D01*
X83181340Y-87326231D01*
X83194857Y-87312715D01*
X83214647Y-87303976D01*
X83238156Y-87288269D01*
X83260114Y-87283901D01*
X83276881Y-87276498D01*
X83325954Y-87270804D01*
X83330000Y-87270000D01*
X83710000Y-87270000D01*
X83714047Y-87270805D01*
G37*
G36*
X84954047Y-87270805D02*
G01*
X85005408Y-87276764D01*
X85022954Y-87284511D01*
X85045671Y-87289030D01*
X85069991Y-87305280D01*
X85090793Y-87314465D01*
X85105000Y-87328672D01*
X85126777Y-87343223D01*
X85141327Y-87364999D01*
X85155534Y-87379206D01*
X85164718Y-87400006D01*
X85180970Y-87424329D01*
X85185489Y-87447048D01*
X85193235Y-87464591D01*
X85199192Y-87515940D01*
X85200000Y-87520000D01*
X85200000Y-88320000D01*
X85199192Y-88324059D01*
X85193235Y-88375408D01*
X85185489Y-88392950D01*
X85180970Y-88415671D01*
X85164716Y-88439995D01*
X85155534Y-88460793D01*
X85141329Y-88474997D01*
X85126777Y-88496777D01*
X85104997Y-88511329D01*
X85090793Y-88525534D01*
X85069995Y-88534716D01*
X85045671Y-88550970D01*
X85022950Y-88555489D01*
X85005408Y-88563235D01*
X84954061Y-88569192D01*
X84950000Y-88570000D01*
X84550000Y-88570000D01*
X84545941Y-88569192D01*
X84494591Y-88563235D01*
X84477048Y-88555489D01*
X84454329Y-88550970D01*
X84430006Y-88534718D01*
X84409206Y-88525534D01*
X84394999Y-88511327D01*
X84373223Y-88496777D01*
X84358672Y-88475000D01*
X84344465Y-88460793D01*
X84335280Y-88439991D01*
X84319030Y-88415671D01*
X84314511Y-88392954D01*
X84306764Y-88375408D01*
X84300805Y-88324049D01*
X84300000Y-88320000D01*
X84300000Y-87520000D01*
X84300804Y-87515953D01*
X84306764Y-87464591D01*
X84314511Y-87447043D01*
X84319030Y-87424329D01*
X84335278Y-87400010D01*
X84344465Y-87379206D01*
X84358674Y-87364996D01*
X84373223Y-87343223D01*
X84394996Y-87328674D01*
X84409206Y-87314465D01*
X84430010Y-87305278D01*
X84454329Y-87289030D01*
X84477043Y-87284511D01*
X84494591Y-87276764D01*
X84545952Y-87270805D01*
X84550000Y-87270000D01*
X84950000Y-87270000D01*
X84954047Y-87270805D01*
G37*
G36*
X77379047Y-85475805D02*
G01*
X77430408Y-85481764D01*
X77447954Y-85489511D01*
X77470671Y-85494030D01*
X77494991Y-85510280D01*
X77515793Y-85519465D01*
X77530000Y-85533672D01*
X77551777Y-85548223D01*
X77566327Y-85569999D01*
X77580534Y-85584206D01*
X77589718Y-85605006D01*
X77605970Y-85629329D01*
X77610489Y-85652048D01*
X77618235Y-85669591D01*
X77624192Y-85720940D01*
X77625000Y-85725000D01*
X77625000Y-86275000D01*
X77624192Y-86279059D01*
X77618235Y-86330408D01*
X77610489Y-86347950D01*
X77605970Y-86370671D01*
X77589716Y-86394995D01*
X77580534Y-86415793D01*
X77566329Y-86429997D01*
X77551777Y-86451777D01*
X77529997Y-86466329D01*
X77515793Y-86480534D01*
X77494995Y-86489716D01*
X77470671Y-86505970D01*
X77447950Y-86510489D01*
X77430408Y-86518235D01*
X77379061Y-86524192D01*
X77375000Y-86525000D01*
X76975000Y-86525000D01*
X76970941Y-86524192D01*
X76919591Y-86518235D01*
X76902048Y-86510489D01*
X76879329Y-86505970D01*
X76855006Y-86489718D01*
X76834206Y-86480534D01*
X76819999Y-86466327D01*
X76798223Y-86451777D01*
X76783672Y-86430000D01*
X76769465Y-86415793D01*
X76760280Y-86394991D01*
X76744030Y-86370671D01*
X76739511Y-86347954D01*
X76731764Y-86330408D01*
X76725805Y-86279049D01*
X76725000Y-86275000D01*
X76725000Y-85725000D01*
X76725804Y-85720953D01*
X76731764Y-85669591D01*
X76739511Y-85652043D01*
X76744030Y-85629329D01*
X76760278Y-85605010D01*
X76769465Y-85584206D01*
X76783674Y-85569996D01*
X76798223Y-85548223D01*
X76819996Y-85533674D01*
X76834206Y-85519465D01*
X76855010Y-85510278D01*
X76879329Y-85494030D01*
X76902043Y-85489511D01*
X76919591Y-85481764D01*
X76970952Y-85475805D01*
X76975000Y-85475000D01*
X77375000Y-85475000D01*
X77379047Y-85475805D01*
G37*
G36*
X79029047Y-85475805D02*
G01*
X79080408Y-85481764D01*
X79097954Y-85489511D01*
X79120671Y-85494030D01*
X79144991Y-85510280D01*
X79165793Y-85519465D01*
X79180000Y-85533672D01*
X79201777Y-85548223D01*
X79216327Y-85569999D01*
X79230534Y-85584206D01*
X79239718Y-85605006D01*
X79255970Y-85629329D01*
X79260489Y-85652048D01*
X79268235Y-85669591D01*
X79274192Y-85720940D01*
X79275000Y-85725000D01*
X79275000Y-86275000D01*
X79274192Y-86279059D01*
X79268235Y-86330408D01*
X79260489Y-86347950D01*
X79255970Y-86370671D01*
X79239716Y-86394995D01*
X79230534Y-86415793D01*
X79216329Y-86429997D01*
X79201777Y-86451777D01*
X79179997Y-86466329D01*
X79165793Y-86480534D01*
X79144995Y-86489716D01*
X79120671Y-86505970D01*
X79097950Y-86510489D01*
X79080408Y-86518235D01*
X79029061Y-86524192D01*
X79025000Y-86525000D01*
X78625000Y-86525000D01*
X78620941Y-86524192D01*
X78569591Y-86518235D01*
X78552048Y-86510489D01*
X78529329Y-86505970D01*
X78505006Y-86489718D01*
X78484206Y-86480534D01*
X78469999Y-86466327D01*
X78448223Y-86451777D01*
X78433672Y-86430000D01*
X78419465Y-86415793D01*
X78410280Y-86394991D01*
X78394030Y-86370671D01*
X78389511Y-86347954D01*
X78381764Y-86330408D01*
X78375805Y-86279049D01*
X78375000Y-86275000D01*
X78375000Y-85725000D01*
X78375804Y-85720953D01*
X78381764Y-85669591D01*
X78389511Y-85652043D01*
X78394030Y-85629329D01*
X78410278Y-85605010D01*
X78419465Y-85584206D01*
X78433674Y-85569996D01*
X78448223Y-85548223D01*
X78469996Y-85533674D01*
X78484206Y-85519465D01*
X78505010Y-85510278D01*
X78529329Y-85494030D01*
X78552043Y-85489511D01*
X78569591Y-85481764D01*
X78620952Y-85475805D01*
X78625000Y-85475000D01*
X79025000Y-85475000D01*
X79029047Y-85475805D01*
G37*
G36*
X85379047Y-85475805D02*
G01*
X85430408Y-85481764D01*
X85447954Y-85489511D01*
X85470671Y-85494030D01*
X85494991Y-85510280D01*
X85515793Y-85519465D01*
X85530000Y-85533672D01*
X85551777Y-85548223D01*
X85566327Y-85569999D01*
X85580534Y-85584206D01*
X85589718Y-85605006D01*
X85605970Y-85629329D01*
X85610489Y-85652048D01*
X85618235Y-85669591D01*
X85624192Y-85720940D01*
X85625000Y-85725000D01*
X85625000Y-86275000D01*
X85624192Y-86279059D01*
X85618235Y-86330408D01*
X85610489Y-86347950D01*
X85605970Y-86370671D01*
X85589716Y-86394995D01*
X85580534Y-86415793D01*
X85566329Y-86429997D01*
X85551777Y-86451777D01*
X85529997Y-86466329D01*
X85515793Y-86480534D01*
X85494995Y-86489716D01*
X85470671Y-86505970D01*
X85447950Y-86510489D01*
X85430408Y-86518235D01*
X85379061Y-86524192D01*
X85375000Y-86525000D01*
X84975000Y-86525000D01*
X84970941Y-86524192D01*
X84919591Y-86518235D01*
X84902048Y-86510489D01*
X84879329Y-86505970D01*
X84855006Y-86489718D01*
X84834206Y-86480534D01*
X84819999Y-86466327D01*
X84798223Y-86451777D01*
X84783672Y-86430000D01*
X84769465Y-86415793D01*
X84760280Y-86394991D01*
X84744030Y-86370671D01*
X84739511Y-86347954D01*
X84731764Y-86330408D01*
X84725805Y-86279049D01*
X84725000Y-86275000D01*
X84725000Y-85725000D01*
X84725804Y-85720953D01*
X84731764Y-85669591D01*
X84739511Y-85652043D01*
X84744030Y-85629329D01*
X84760278Y-85605010D01*
X84769465Y-85584206D01*
X84783674Y-85569996D01*
X84798223Y-85548223D01*
X84819996Y-85533674D01*
X84834206Y-85519465D01*
X84855010Y-85510278D01*
X84879329Y-85494030D01*
X84902043Y-85489511D01*
X84919591Y-85481764D01*
X84970952Y-85475805D01*
X84975000Y-85475000D01*
X85375000Y-85475000D01*
X85379047Y-85475805D01*
G37*
G36*
X87029047Y-85475805D02*
G01*
X87080408Y-85481764D01*
X87097954Y-85489511D01*
X87120671Y-85494030D01*
X87144991Y-85510280D01*
X87165793Y-85519465D01*
X87180000Y-85533672D01*
X87201777Y-85548223D01*
X87216327Y-85569999D01*
X87230534Y-85584206D01*
X87239718Y-85605006D01*
X87255970Y-85629329D01*
X87260489Y-85652048D01*
X87268235Y-85669591D01*
X87274192Y-85720940D01*
X87275000Y-85725000D01*
X87275000Y-86275000D01*
X87274192Y-86279059D01*
X87268235Y-86330408D01*
X87260489Y-86347950D01*
X87255970Y-86370671D01*
X87239716Y-86394995D01*
X87230534Y-86415793D01*
X87216329Y-86429997D01*
X87201777Y-86451777D01*
X87179997Y-86466329D01*
X87165793Y-86480534D01*
X87144995Y-86489716D01*
X87120671Y-86505970D01*
X87097950Y-86510489D01*
X87080408Y-86518235D01*
X87029061Y-86524192D01*
X87025000Y-86525000D01*
X86625000Y-86525000D01*
X86620941Y-86524192D01*
X86569591Y-86518235D01*
X86552048Y-86510489D01*
X86529329Y-86505970D01*
X86505006Y-86489718D01*
X86484206Y-86480534D01*
X86469999Y-86466327D01*
X86448223Y-86451777D01*
X86433672Y-86430000D01*
X86419465Y-86415793D01*
X86410280Y-86394991D01*
X86394030Y-86370671D01*
X86389511Y-86347954D01*
X86381764Y-86330408D01*
X86375805Y-86279049D01*
X86375000Y-86275000D01*
X86375000Y-85725000D01*
X86375804Y-85720953D01*
X86381764Y-85669591D01*
X86389511Y-85652043D01*
X86394030Y-85629329D01*
X86410278Y-85605010D01*
X86419465Y-85584206D01*
X86433674Y-85569996D01*
X86448223Y-85548223D01*
X86469996Y-85533674D01*
X86484206Y-85519465D01*
X86505010Y-85510278D01*
X86529329Y-85494030D01*
X86552043Y-85489511D01*
X86569591Y-85481764D01*
X86620952Y-85475805D01*
X86625000Y-85475000D01*
X87025000Y-85475000D01*
X87029047Y-85475805D01*
G37*
G36*
X81043685Y-81082969D02*
G01*
X81052358Y-81086798D01*
X81059925Y-81087901D01*
X81107223Y-81111023D01*
X81144541Y-81127501D01*
X81147996Y-81130956D01*
X81148920Y-81131408D01*
X81218591Y-81201079D01*
X81219042Y-81202002D01*
X81222499Y-81205459D01*
X81238978Y-81242782D01*
X81262098Y-81290073D01*
X81263200Y-81297639D01*
X81267031Y-81306315D01*
X81275000Y-81375000D01*
X81275000Y-82625000D01*
X81267031Y-82693685D01*
X81263199Y-82702361D01*
X81262098Y-82709925D01*
X81238985Y-82757202D01*
X81222499Y-82794541D01*
X81219041Y-82797998D01*
X81218591Y-82798920D01*
X81148920Y-82868591D01*
X81147998Y-82869041D01*
X81144541Y-82872499D01*
X81107207Y-82888983D01*
X81059926Y-82912098D01*
X81052361Y-82913200D01*
X81043685Y-82917031D01*
X80975000Y-82925000D01*
X80225000Y-82925000D01*
X80156315Y-82917031D01*
X80147638Y-82913200D01*
X80140074Y-82912098D01*
X80092787Y-82888981D01*
X80055459Y-82872499D01*
X80052002Y-82869042D01*
X80051079Y-82868591D01*
X79981408Y-82798920D01*
X79980956Y-82797996D01*
X79977501Y-82794541D01*
X79961025Y-82757228D01*
X79937901Y-82709926D01*
X79936798Y-82702357D01*
X79932969Y-82693685D01*
X79925000Y-82625000D01*
X79925000Y-81375000D01*
X79932969Y-81306315D01*
X79936798Y-81297642D01*
X79937901Y-81290074D01*
X79961028Y-81242766D01*
X79977501Y-81205459D01*
X79980955Y-81202004D01*
X79981408Y-81201079D01*
X80051079Y-81131408D01*
X80052004Y-81130955D01*
X80055459Y-81127501D01*
X80092761Y-81111030D01*
X80140073Y-81087901D01*
X80147642Y-81086798D01*
X80156315Y-81082969D01*
X80225000Y-81075000D01*
X80975000Y-81075000D01*
X81043685Y-81082969D01*
G37*
G36*
X83843685Y-81082969D02*
G01*
X83852358Y-81086798D01*
X83859925Y-81087901D01*
X83907223Y-81111023D01*
X83944541Y-81127501D01*
X83947996Y-81130956D01*
X83948920Y-81131408D01*
X84018591Y-81201079D01*
X84019042Y-81202002D01*
X84022499Y-81205459D01*
X84038978Y-81242782D01*
X84062098Y-81290073D01*
X84063200Y-81297639D01*
X84067031Y-81306315D01*
X84075000Y-81375000D01*
X84075000Y-82625000D01*
X84067031Y-82693685D01*
X84063199Y-82702361D01*
X84062098Y-82709925D01*
X84038985Y-82757202D01*
X84022499Y-82794541D01*
X84019041Y-82797998D01*
X84018591Y-82798920D01*
X83948920Y-82868591D01*
X83947998Y-82869041D01*
X83944541Y-82872499D01*
X83907207Y-82888983D01*
X83859926Y-82912098D01*
X83852361Y-82913200D01*
X83843685Y-82917031D01*
X83775000Y-82925000D01*
X83025000Y-82925000D01*
X82956315Y-82917031D01*
X82947638Y-82913200D01*
X82940074Y-82912098D01*
X82892787Y-82888981D01*
X82855459Y-82872499D01*
X82852002Y-82869042D01*
X82851079Y-82868591D01*
X82781408Y-82798920D01*
X82780956Y-82797996D01*
X82777501Y-82794541D01*
X82761025Y-82757228D01*
X82737901Y-82709926D01*
X82736798Y-82702357D01*
X82732969Y-82693685D01*
X82725000Y-82625000D01*
X82725000Y-81375000D01*
X82732969Y-81306315D01*
X82736798Y-81297642D01*
X82737901Y-81290074D01*
X82761028Y-81242766D01*
X82777501Y-81205459D01*
X82780955Y-81202004D01*
X82781408Y-81201079D01*
X82851079Y-81131408D01*
X82852004Y-81130955D01*
X82855459Y-81127501D01*
X82892761Y-81111030D01*
X82940073Y-81087901D01*
X82947642Y-81086798D01*
X82956315Y-81082969D01*
X83025000Y-81075000D01*
X83775000Y-81075000D01*
X83843685Y-81082969D01*
G37*
G36*
X79879047Y-79475805D02*
G01*
X79930408Y-79481764D01*
X79947954Y-79489511D01*
X79970671Y-79494030D01*
X79994991Y-79510280D01*
X80015793Y-79519465D01*
X80030000Y-79533672D01*
X80051777Y-79548223D01*
X80066327Y-79569999D01*
X80080534Y-79584206D01*
X80089718Y-79605006D01*
X80105970Y-79629329D01*
X80110489Y-79652048D01*
X80118235Y-79669591D01*
X80124192Y-79720940D01*
X80125000Y-79725000D01*
X80125000Y-80275000D01*
X80124192Y-80279059D01*
X80118235Y-80330408D01*
X80110489Y-80347950D01*
X80105970Y-80370671D01*
X80089716Y-80394995D01*
X80080534Y-80415793D01*
X80066329Y-80429997D01*
X80051777Y-80451777D01*
X80029997Y-80466329D01*
X80015793Y-80480534D01*
X79994995Y-80489716D01*
X79970671Y-80505970D01*
X79947950Y-80510489D01*
X79930408Y-80518235D01*
X79879061Y-80524192D01*
X79875000Y-80525000D01*
X79475000Y-80525000D01*
X79470941Y-80524192D01*
X79419591Y-80518235D01*
X79402048Y-80510489D01*
X79379329Y-80505970D01*
X79355006Y-80489718D01*
X79334206Y-80480534D01*
X79319999Y-80466327D01*
X79298223Y-80451777D01*
X79283672Y-80430000D01*
X79269465Y-80415793D01*
X79260280Y-80394991D01*
X79244030Y-80370671D01*
X79239511Y-80347954D01*
X79231764Y-80330408D01*
X79225805Y-80279049D01*
X79225000Y-80275000D01*
X79225000Y-79725000D01*
X79225804Y-79720953D01*
X79231764Y-79669591D01*
X79239511Y-79652043D01*
X79244030Y-79629329D01*
X79260278Y-79605010D01*
X79269465Y-79584206D01*
X79283674Y-79569996D01*
X79298223Y-79548223D01*
X79319996Y-79533674D01*
X79334206Y-79519465D01*
X79355010Y-79510278D01*
X79379329Y-79494030D01*
X79402043Y-79489511D01*
X79419591Y-79481764D01*
X79470952Y-79475805D01*
X79475000Y-79475000D01*
X79875000Y-79475000D01*
X79879047Y-79475805D01*
G37*
G36*
X81529047Y-79475805D02*
G01*
X81580408Y-79481764D01*
X81597954Y-79489511D01*
X81620671Y-79494030D01*
X81644991Y-79510280D01*
X81665793Y-79519465D01*
X81680001Y-79533672D01*
X81701777Y-79548223D01*
X81716326Y-79569997D01*
X81734593Y-79588264D01*
X81776013Y-79588264D01*
X81789927Y-79574349D01*
X81803715Y-79553715D01*
X81824349Y-79539927D01*
X81840042Y-79524235D01*
X81865835Y-79512207D01*
X81890904Y-79495457D01*
X81909830Y-79491692D01*
X81925409Y-79484428D01*
X81987341Y-79476274D01*
X81993750Y-79475000D01*
X82431250Y-79475000D01*
X82437660Y-79476275D01*
X82499590Y-79484428D01*
X82515167Y-79491692D01*
X82534096Y-79495457D01*
X82559167Y-79512208D01*
X82584955Y-79524234D01*
X82600644Y-79539923D01*
X82621285Y-79553715D01*
X82635076Y-79574355D01*
X82650765Y-79590044D01*
X82662789Y-79615830D01*
X82679543Y-79640904D01*
X82683308Y-79659834D01*
X82690571Y-79675409D01*
X82698722Y-79737326D01*
X82700000Y-79743750D01*
X82700000Y-80256250D01*
X82698722Y-80262674D01*
X82690571Y-80324590D01*
X82683308Y-80340164D01*
X82679543Y-80359096D01*
X82662787Y-80384171D01*
X82650765Y-80409955D01*
X82635078Y-80425641D01*
X82621285Y-80446285D01*
X82600641Y-80460078D01*
X82584955Y-80475765D01*
X82559171Y-80487787D01*
X82534096Y-80504543D01*
X82515164Y-80508308D01*
X82499590Y-80515571D01*
X82437674Y-80523722D01*
X82431250Y-80525000D01*
X81993750Y-80525000D01*
X81987326Y-80523722D01*
X81925409Y-80515571D01*
X81909834Y-80508308D01*
X81890904Y-80504543D01*
X81865830Y-80487789D01*
X81840044Y-80475765D01*
X81824355Y-80460076D01*
X81803715Y-80446285D01*
X81789924Y-80425646D01*
X81776013Y-80411735D01*
X81734592Y-80411735D01*
X81716329Y-80429998D01*
X81701777Y-80451777D01*
X81679999Y-80466327D01*
X81665795Y-80480533D01*
X81644995Y-80489716D01*
X81620671Y-80505970D01*
X81597950Y-80510489D01*
X81580408Y-80518235D01*
X81529061Y-80524192D01*
X81525000Y-80525000D01*
X81125000Y-80525000D01*
X81120941Y-80524192D01*
X81069591Y-80518235D01*
X81052048Y-80510489D01*
X81029329Y-80505970D01*
X81005006Y-80489718D01*
X80984206Y-80480534D01*
X80969999Y-80466327D01*
X80948223Y-80451777D01*
X80933672Y-80430000D01*
X80919465Y-80415793D01*
X80910280Y-80394991D01*
X80894030Y-80370671D01*
X80889511Y-80347954D01*
X80881764Y-80330408D01*
X80875805Y-80279049D01*
X80875000Y-80275000D01*
X80875000Y-79725000D01*
X80875804Y-79720953D01*
X80881764Y-79669591D01*
X80889511Y-79652043D01*
X80894030Y-79629329D01*
X80910278Y-79605010D01*
X80919465Y-79584206D01*
X80933674Y-79569996D01*
X80948223Y-79548223D01*
X80969996Y-79533674D01*
X80984206Y-79519465D01*
X81005010Y-79510278D01*
X81029329Y-79494030D01*
X81052043Y-79489511D01*
X81069591Y-79481764D01*
X81120952Y-79475805D01*
X81125000Y-79475000D01*
X81525000Y-79475000D01*
X81529047Y-79475805D01*
G37*
G36*
X84012660Y-79476275D02*
G01*
X84074590Y-79484428D01*
X84090167Y-79491692D01*
X84109096Y-79495457D01*
X84134167Y-79512208D01*
X84159955Y-79524234D01*
X84175644Y-79539923D01*
X84196285Y-79553715D01*
X84210076Y-79574355D01*
X84225765Y-79590044D01*
X84237789Y-79615830D01*
X84254543Y-79640904D01*
X84258308Y-79659834D01*
X84265571Y-79675409D01*
X84273722Y-79737326D01*
X84275000Y-79743750D01*
X84275000Y-80256250D01*
X84273722Y-80262674D01*
X84265571Y-80324590D01*
X84258308Y-80340164D01*
X84254543Y-80359096D01*
X84237787Y-80384171D01*
X84225765Y-80409955D01*
X84210078Y-80425641D01*
X84196285Y-80446285D01*
X84175641Y-80460078D01*
X84159955Y-80475765D01*
X84134171Y-80487787D01*
X84109096Y-80504543D01*
X84090164Y-80508308D01*
X84074590Y-80515571D01*
X84012674Y-80523722D01*
X84006250Y-80525000D01*
X83568750Y-80525000D01*
X83562326Y-80523722D01*
X83500409Y-80515571D01*
X83484834Y-80508308D01*
X83465904Y-80504543D01*
X83440830Y-80487789D01*
X83415044Y-80475765D01*
X83399355Y-80460076D01*
X83378715Y-80446285D01*
X83364923Y-80425644D01*
X83349234Y-80409955D01*
X83337208Y-80384167D01*
X83320457Y-80359096D01*
X83316692Y-80340167D01*
X83309428Y-80324590D01*
X83301275Y-80262660D01*
X83300000Y-80256250D01*
X83300000Y-79743750D01*
X83301274Y-79737341D01*
X83309428Y-79675409D01*
X83316692Y-79659830D01*
X83320457Y-79640904D01*
X83337207Y-79615835D01*
X83349234Y-79590044D01*
X83364925Y-79574352D01*
X83378715Y-79553715D01*
X83399352Y-79539925D01*
X83415044Y-79524234D01*
X83440835Y-79512207D01*
X83465904Y-79495457D01*
X83484830Y-79491692D01*
X83500409Y-79484428D01*
X83562341Y-79476274D01*
X83568750Y-79475000D01*
X84006250Y-79475000D01*
X84012660Y-79476275D01*
G37*
G36*
X79879047Y-68475805D02*
G01*
X79930408Y-68481764D01*
X79947954Y-68489511D01*
X79970671Y-68494030D01*
X79994991Y-68510280D01*
X80015793Y-68519465D01*
X80030000Y-68533672D01*
X80051777Y-68548223D01*
X80066327Y-68569999D01*
X80080534Y-68584206D01*
X80089718Y-68605006D01*
X80105970Y-68629329D01*
X80110489Y-68652048D01*
X80118235Y-68669591D01*
X80124192Y-68720940D01*
X80125000Y-68725000D01*
X80125000Y-69275000D01*
X80124192Y-69279059D01*
X80118235Y-69330408D01*
X80110489Y-69347950D01*
X80105970Y-69370671D01*
X80089716Y-69394995D01*
X80080534Y-69415793D01*
X80066329Y-69429997D01*
X80051777Y-69451777D01*
X80029997Y-69466329D01*
X80015793Y-69480534D01*
X79994995Y-69489716D01*
X79970671Y-69505970D01*
X79947950Y-69510489D01*
X79930408Y-69518235D01*
X79879061Y-69524192D01*
X79875000Y-69525000D01*
X79475000Y-69525000D01*
X79470941Y-69524192D01*
X79419591Y-69518235D01*
X79402048Y-69510489D01*
X79379329Y-69505970D01*
X79355006Y-69489718D01*
X79334206Y-69480534D01*
X79319999Y-69466327D01*
X79298223Y-69451777D01*
X79283672Y-69430000D01*
X79269465Y-69415793D01*
X79260280Y-69394991D01*
X79244030Y-69370671D01*
X79239511Y-69347954D01*
X79231764Y-69330408D01*
X79225805Y-69279049D01*
X79225000Y-69275000D01*
X79225000Y-68725000D01*
X79225804Y-68720953D01*
X79231764Y-68669591D01*
X79239511Y-68652043D01*
X79244030Y-68629329D01*
X79260278Y-68605010D01*
X79269465Y-68584206D01*
X79283674Y-68569996D01*
X79298223Y-68548223D01*
X79319996Y-68533674D01*
X79334206Y-68519465D01*
X79355010Y-68510278D01*
X79379329Y-68494030D01*
X79402043Y-68489511D01*
X79419591Y-68481764D01*
X79470952Y-68475805D01*
X79475000Y-68475000D01*
X79875000Y-68475000D01*
X79879047Y-68475805D01*
G37*
G36*
X81529047Y-68475805D02*
G01*
X81580408Y-68481764D01*
X81597954Y-68489511D01*
X81620671Y-68494030D01*
X81644991Y-68510280D01*
X81665793Y-68519465D01*
X81680001Y-68533672D01*
X81701777Y-68548223D01*
X81716326Y-68569997D01*
X81734593Y-68588264D01*
X81776013Y-68588264D01*
X81789927Y-68574349D01*
X81803715Y-68553715D01*
X81824349Y-68539927D01*
X81840042Y-68524235D01*
X81865835Y-68512207D01*
X81890904Y-68495457D01*
X81909830Y-68491692D01*
X81925409Y-68484428D01*
X81987341Y-68476274D01*
X81993750Y-68475000D01*
X82431250Y-68475000D01*
X82437660Y-68476275D01*
X82499590Y-68484428D01*
X82515167Y-68491692D01*
X82534096Y-68495457D01*
X82559167Y-68512208D01*
X82584955Y-68524234D01*
X82600644Y-68539923D01*
X82621285Y-68553715D01*
X82635076Y-68574355D01*
X82650765Y-68590044D01*
X82662789Y-68615830D01*
X82679543Y-68640904D01*
X82683308Y-68659834D01*
X82690571Y-68675409D01*
X82698722Y-68737326D01*
X82700000Y-68743750D01*
X82700000Y-69256250D01*
X82698722Y-69262674D01*
X82690571Y-69324590D01*
X82683308Y-69340164D01*
X82679543Y-69359096D01*
X82662787Y-69384171D01*
X82650765Y-69409955D01*
X82635078Y-69425641D01*
X82621285Y-69446285D01*
X82600641Y-69460078D01*
X82584955Y-69475765D01*
X82559171Y-69487787D01*
X82534096Y-69504543D01*
X82515164Y-69508308D01*
X82499590Y-69515571D01*
X82437674Y-69523722D01*
X82431250Y-69525000D01*
X81993750Y-69525000D01*
X81987326Y-69523722D01*
X81925409Y-69515571D01*
X81909834Y-69508308D01*
X81890904Y-69504543D01*
X81865830Y-69487789D01*
X81840044Y-69475765D01*
X81824355Y-69460076D01*
X81803715Y-69446285D01*
X81789924Y-69425646D01*
X81776013Y-69411735D01*
X81734592Y-69411735D01*
X81716329Y-69429998D01*
X81701777Y-69451777D01*
X81679999Y-69466327D01*
X81665795Y-69480533D01*
X81644995Y-69489716D01*
X81620671Y-69505970D01*
X81597950Y-69510489D01*
X81580408Y-69518235D01*
X81529061Y-69524192D01*
X81525000Y-69525000D01*
X81125000Y-69525000D01*
X81120941Y-69524192D01*
X81069591Y-69518235D01*
X81052048Y-69510489D01*
X81029329Y-69505970D01*
X81005006Y-69489718D01*
X80984206Y-69480534D01*
X80969999Y-69466327D01*
X80948223Y-69451777D01*
X80933672Y-69430000D01*
X80919465Y-69415793D01*
X80910280Y-69394991D01*
X80894030Y-69370671D01*
X80889511Y-69347954D01*
X80881764Y-69330408D01*
X80875805Y-69279049D01*
X80875000Y-69275000D01*
X80875000Y-68725000D01*
X80875804Y-68720953D01*
X80881764Y-68669591D01*
X80889511Y-68652043D01*
X80894030Y-68629329D01*
X80910278Y-68605010D01*
X80919465Y-68584206D01*
X80933674Y-68569996D01*
X80948223Y-68548223D01*
X80969996Y-68533674D01*
X80984206Y-68519465D01*
X81005010Y-68510278D01*
X81029329Y-68494030D01*
X81052043Y-68489511D01*
X81069591Y-68481764D01*
X81120952Y-68475805D01*
X81125000Y-68475000D01*
X81525000Y-68475000D01*
X81529047Y-68475805D01*
G37*
G36*
X84012660Y-68476275D02*
G01*
X84074590Y-68484428D01*
X84090167Y-68491692D01*
X84109096Y-68495457D01*
X84134167Y-68512208D01*
X84159955Y-68524234D01*
X84175644Y-68539923D01*
X84196285Y-68553715D01*
X84210076Y-68574355D01*
X84225765Y-68590044D01*
X84237789Y-68615830D01*
X84254543Y-68640904D01*
X84258308Y-68659834D01*
X84265571Y-68675409D01*
X84273722Y-68737326D01*
X84275000Y-68743750D01*
X84275000Y-69256250D01*
X84273722Y-69262674D01*
X84265571Y-69324590D01*
X84258308Y-69340164D01*
X84254543Y-69359096D01*
X84237787Y-69384171D01*
X84225765Y-69409955D01*
X84210078Y-69425641D01*
X84196285Y-69446285D01*
X84175641Y-69460078D01*
X84159955Y-69475765D01*
X84134171Y-69487787D01*
X84109096Y-69504543D01*
X84090164Y-69508308D01*
X84074590Y-69515571D01*
X84012674Y-69523722D01*
X84006250Y-69525000D01*
X83568750Y-69525000D01*
X83562326Y-69523722D01*
X83500409Y-69515571D01*
X83484834Y-69508308D01*
X83465904Y-69504543D01*
X83440830Y-69487789D01*
X83415044Y-69475765D01*
X83399355Y-69460076D01*
X83378715Y-69446285D01*
X83364923Y-69425644D01*
X83349234Y-69409955D01*
X83337208Y-69384167D01*
X83320457Y-69359096D01*
X83316692Y-69340167D01*
X83309428Y-69324590D01*
X83301275Y-69262660D01*
X83300000Y-69256250D01*
X83300000Y-68743750D01*
X83301274Y-68737341D01*
X83309428Y-68675409D01*
X83316692Y-68659830D01*
X83320457Y-68640904D01*
X83337207Y-68615835D01*
X83349234Y-68590044D01*
X83364925Y-68574352D01*
X83378715Y-68553715D01*
X83399352Y-68539925D01*
X83415044Y-68524234D01*
X83440835Y-68512207D01*
X83465904Y-68495457D01*
X83484830Y-68491692D01*
X83500409Y-68484428D01*
X83562341Y-68476274D01*
X83568750Y-68475000D01*
X84006250Y-68475000D01*
X84012660Y-68476275D01*
G37*
G36*
X79879047Y-57475805D02*
G01*
X79930408Y-57481764D01*
X79947954Y-57489511D01*
X79970671Y-57494030D01*
X79994991Y-57510280D01*
X80015793Y-57519465D01*
X80030000Y-57533672D01*
X80051777Y-57548223D01*
X80066327Y-57569999D01*
X80080534Y-57584206D01*
X80089718Y-57605006D01*
X80105970Y-57629329D01*
X80110489Y-57652048D01*
X80118235Y-57669591D01*
X80124192Y-57720940D01*
X80125000Y-57725000D01*
X80125000Y-58275000D01*
X80124192Y-58279059D01*
X80118235Y-58330408D01*
X80110489Y-58347950D01*
X80105970Y-58370671D01*
X80089716Y-58394995D01*
X80080534Y-58415793D01*
X80066329Y-58429997D01*
X80051777Y-58451777D01*
X80029997Y-58466329D01*
X80015793Y-58480534D01*
X79994995Y-58489716D01*
X79970671Y-58505970D01*
X79947950Y-58510489D01*
X79930408Y-58518235D01*
X79879061Y-58524192D01*
X79875000Y-58525000D01*
X79475000Y-58525000D01*
X79470941Y-58524192D01*
X79419591Y-58518235D01*
X79402048Y-58510489D01*
X79379329Y-58505970D01*
X79355006Y-58489718D01*
X79334206Y-58480534D01*
X79319999Y-58466327D01*
X79298223Y-58451777D01*
X79283672Y-58430000D01*
X79269465Y-58415793D01*
X79260280Y-58394991D01*
X79244030Y-58370671D01*
X79239511Y-58347954D01*
X79231764Y-58330408D01*
X79225805Y-58279049D01*
X79225000Y-58275000D01*
X79225000Y-57725000D01*
X79225804Y-57720953D01*
X79231764Y-57669591D01*
X79239511Y-57652043D01*
X79244030Y-57629329D01*
X79260278Y-57605010D01*
X79269465Y-57584206D01*
X79283674Y-57569996D01*
X79298223Y-57548223D01*
X79319996Y-57533674D01*
X79334206Y-57519465D01*
X79355010Y-57510278D01*
X79379329Y-57494030D01*
X79402043Y-57489511D01*
X79419591Y-57481764D01*
X79470952Y-57475805D01*
X79475000Y-57475000D01*
X79875000Y-57475000D01*
X79879047Y-57475805D01*
G37*
G36*
X81529047Y-57475805D02*
G01*
X81580408Y-57481764D01*
X81597954Y-57489511D01*
X81620671Y-57494030D01*
X81644991Y-57510280D01*
X81665793Y-57519465D01*
X81680001Y-57533672D01*
X81701777Y-57548223D01*
X81716326Y-57569997D01*
X81734593Y-57588264D01*
X81776013Y-57588264D01*
X81789927Y-57574349D01*
X81803715Y-57553715D01*
X81824349Y-57539927D01*
X81840042Y-57524235D01*
X81865835Y-57512207D01*
X81890904Y-57495457D01*
X81909830Y-57491692D01*
X81925409Y-57484428D01*
X81987341Y-57476274D01*
X81993750Y-57475000D01*
X82431250Y-57475000D01*
X82437660Y-57476275D01*
X82499590Y-57484428D01*
X82515167Y-57491692D01*
X82534096Y-57495457D01*
X82559167Y-57512208D01*
X82584955Y-57524234D01*
X82600644Y-57539923D01*
X82621285Y-57553715D01*
X82635076Y-57574355D01*
X82650765Y-57590044D01*
X82662789Y-57615830D01*
X82679543Y-57640904D01*
X82683308Y-57659834D01*
X82690571Y-57675409D01*
X82698722Y-57737326D01*
X82700000Y-57743750D01*
X82700000Y-58256250D01*
X82698722Y-58262674D01*
X82690571Y-58324590D01*
X82683308Y-58340164D01*
X82679543Y-58359096D01*
X82662787Y-58384171D01*
X82650765Y-58409955D01*
X82635078Y-58425641D01*
X82621285Y-58446285D01*
X82600641Y-58460078D01*
X82584955Y-58475765D01*
X82559171Y-58487787D01*
X82534096Y-58504543D01*
X82515164Y-58508308D01*
X82499590Y-58515571D01*
X82437674Y-58523722D01*
X82431250Y-58525000D01*
X81993750Y-58525000D01*
X81987326Y-58523722D01*
X81925409Y-58515571D01*
X81909834Y-58508308D01*
X81890904Y-58504543D01*
X81865830Y-58487789D01*
X81840044Y-58475765D01*
X81824355Y-58460076D01*
X81803715Y-58446285D01*
X81789924Y-58425646D01*
X81776013Y-58411735D01*
X81734592Y-58411735D01*
X81716329Y-58429998D01*
X81701777Y-58451777D01*
X81679999Y-58466327D01*
X81665795Y-58480533D01*
X81644995Y-58489716D01*
X81620671Y-58505970D01*
X81597950Y-58510489D01*
X81580408Y-58518235D01*
X81529061Y-58524192D01*
X81525000Y-58525000D01*
X81125000Y-58525000D01*
X81120941Y-58524192D01*
X81069591Y-58518235D01*
X81052048Y-58510489D01*
X81029329Y-58505970D01*
X81005006Y-58489718D01*
X80984206Y-58480534D01*
X80969999Y-58466327D01*
X80948223Y-58451777D01*
X80933672Y-58430000D01*
X80919465Y-58415793D01*
X80910280Y-58394991D01*
X80894030Y-58370671D01*
X80889511Y-58347954D01*
X80881764Y-58330408D01*
X80875805Y-58279049D01*
X80875000Y-58275000D01*
X80875000Y-57725000D01*
X80875804Y-57720953D01*
X80881764Y-57669591D01*
X80889511Y-57652043D01*
X80894030Y-57629329D01*
X80910278Y-57605010D01*
X80919465Y-57584206D01*
X80933674Y-57569996D01*
X80948223Y-57548223D01*
X80969996Y-57533674D01*
X80984206Y-57519465D01*
X81005010Y-57510278D01*
X81029329Y-57494030D01*
X81052043Y-57489511D01*
X81069591Y-57481764D01*
X81120952Y-57475805D01*
X81125000Y-57475000D01*
X81525000Y-57475000D01*
X81529047Y-57475805D01*
G37*
G36*
X84012660Y-57476275D02*
G01*
X84074590Y-57484428D01*
X84090167Y-57491692D01*
X84109096Y-57495457D01*
X84134167Y-57512208D01*
X84159955Y-57524234D01*
X84175644Y-57539923D01*
X84196285Y-57553715D01*
X84210076Y-57574355D01*
X84225765Y-57590044D01*
X84237789Y-57615830D01*
X84254543Y-57640904D01*
X84258308Y-57659834D01*
X84265571Y-57675409D01*
X84273722Y-57737326D01*
X84275000Y-57743750D01*
X84275000Y-58256250D01*
X84273722Y-58262674D01*
X84265571Y-58324590D01*
X84258308Y-58340164D01*
X84254543Y-58359096D01*
X84237787Y-58384171D01*
X84225765Y-58409955D01*
X84210078Y-58425641D01*
X84196285Y-58446285D01*
X84175641Y-58460078D01*
X84159955Y-58475765D01*
X84134171Y-58487787D01*
X84109096Y-58504543D01*
X84090164Y-58508308D01*
X84074590Y-58515571D01*
X84012674Y-58523722D01*
X84006250Y-58525000D01*
X83568750Y-58525000D01*
X83562326Y-58523722D01*
X83500409Y-58515571D01*
X83484834Y-58508308D01*
X83465904Y-58504543D01*
X83440830Y-58487789D01*
X83415044Y-58475765D01*
X83399355Y-58460076D01*
X83378715Y-58446285D01*
X83364923Y-58425644D01*
X83349234Y-58409955D01*
X83337208Y-58384167D01*
X83320457Y-58359096D01*
X83316692Y-58340167D01*
X83309428Y-58324590D01*
X83301275Y-58262660D01*
X83300000Y-58256250D01*
X83300000Y-57743750D01*
X83301274Y-57737341D01*
X83309428Y-57675409D01*
X83316692Y-57659830D01*
X83320457Y-57640904D01*
X83337207Y-57615835D01*
X83349234Y-57590044D01*
X83364925Y-57574352D01*
X83378715Y-57553715D01*
X83399352Y-57539925D01*
X83415044Y-57524234D01*
X83440835Y-57512207D01*
X83465904Y-57495457D01*
X83484830Y-57491692D01*
X83500409Y-57484428D01*
X83562341Y-57476274D01*
X83568750Y-57475000D01*
X84006250Y-57475000D01*
X84012660Y-57476275D01*
G37*
G36*
X79879047Y-46475805D02*
G01*
X79930408Y-46481764D01*
X79947954Y-46489511D01*
X79970671Y-46494030D01*
X79994991Y-46510280D01*
X80015793Y-46519465D01*
X80030000Y-46533672D01*
X80051777Y-46548223D01*
X80066327Y-46569999D01*
X80080534Y-46584206D01*
X80089718Y-46605006D01*
X80105970Y-46629329D01*
X80110489Y-46652048D01*
X80118235Y-46669591D01*
X80124192Y-46720940D01*
X80125000Y-46725000D01*
X80125000Y-47275000D01*
X80124192Y-47279059D01*
X80118235Y-47330408D01*
X80110489Y-47347950D01*
X80105970Y-47370671D01*
X80089716Y-47394995D01*
X80080534Y-47415793D01*
X80066329Y-47429997D01*
X80051777Y-47451777D01*
X80029997Y-47466329D01*
X80015793Y-47480534D01*
X79994995Y-47489716D01*
X79970671Y-47505970D01*
X79947950Y-47510489D01*
X79930408Y-47518235D01*
X79879061Y-47524192D01*
X79875000Y-47525000D01*
X79475000Y-47525000D01*
X79470941Y-47524192D01*
X79419591Y-47518235D01*
X79402048Y-47510489D01*
X79379329Y-47505970D01*
X79355006Y-47489718D01*
X79334206Y-47480534D01*
X79319999Y-47466327D01*
X79298223Y-47451777D01*
X79283672Y-47430000D01*
X79269465Y-47415793D01*
X79260280Y-47394991D01*
X79244030Y-47370671D01*
X79239511Y-47347954D01*
X79231764Y-47330408D01*
X79225805Y-47279049D01*
X79225000Y-47275000D01*
X79225000Y-46725000D01*
X79225804Y-46720953D01*
X79231764Y-46669591D01*
X79239511Y-46652043D01*
X79244030Y-46629329D01*
X79260278Y-46605010D01*
X79269465Y-46584206D01*
X79283674Y-46569996D01*
X79298223Y-46548223D01*
X79319996Y-46533674D01*
X79334206Y-46519465D01*
X79355010Y-46510278D01*
X79379329Y-46494030D01*
X79402043Y-46489511D01*
X79419591Y-46481764D01*
X79470952Y-46475805D01*
X79475000Y-46475000D01*
X79875000Y-46475000D01*
X79879047Y-46475805D01*
G37*
G36*
X81529047Y-46475805D02*
G01*
X81580408Y-46481764D01*
X81597954Y-46489511D01*
X81620671Y-46494030D01*
X81644991Y-46510280D01*
X81665793Y-46519465D01*
X81680001Y-46533672D01*
X81701777Y-46548223D01*
X81716326Y-46569997D01*
X81734593Y-46588264D01*
X81776013Y-46588264D01*
X81789927Y-46574349D01*
X81803715Y-46553715D01*
X81824349Y-46539927D01*
X81840042Y-46524235D01*
X81865835Y-46512207D01*
X81890904Y-46495457D01*
X81909830Y-46491692D01*
X81925409Y-46484428D01*
X81987341Y-46476274D01*
X81993750Y-46475000D01*
X82431250Y-46475000D01*
X82437660Y-46476275D01*
X82499590Y-46484428D01*
X82515167Y-46491692D01*
X82534096Y-46495457D01*
X82559167Y-46512208D01*
X82584955Y-46524234D01*
X82600644Y-46539923D01*
X82621285Y-46553715D01*
X82635076Y-46574355D01*
X82650765Y-46590044D01*
X82662789Y-46615830D01*
X82679543Y-46640904D01*
X82683308Y-46659834D01*
X82690571Y-46675409D01*
X82698722Y-46737326D01*
X82700000Y-46743750D01*
X82700000Y-47256250D01*
X82698722Y-47262674D01*
X82690571Y-47324590D01*
X82683308Y-47340164D01*
X82679543Y-47359096D01*
X82662787Y-47384171D01*
X82650765Y-47409955D01*
X82635078Y-47425641D01*
X82621285Y-47446285D01*
X82600641Y-47460078D01*
X82584955Y-47475765D01*
X82559171Y-47487787D01*
X82534096Y-47504543D01*
X82515164Y-47508308D01*
X82499590Y-47515571D01*
X82437674Y-47523722D01*
X82431250Y-47525000D01*
X81993750Y-47525000D01*
X81987326Y-47523722D01*
X81925409Y-47515571D01*
X81909834Y-47508308D01*
X81890904Y-47504543D01*
X81865830Y-47487789D01*
X81840044Y-47475765D01*
X81824355Y-47460076D01*
X81803715Y-47446285D01*
X81789924Y-47425646D01*
X81776013Y-47411735D01*
X81734592Y-47411735D01*
X81716329Y-47429998D01*
X81701777Y-47451777D01*
X81679999Y-47466327D01*
X81665795Y-47480533D01*
X81644995Y-47489716D01*
X81620671Y-47505970D01*
X81597950Y-47510489D01*
X81580408Y-47518235D01*
X81529061Y-47524192D01*
X81525000Y-47525000D01*
X81125000Y-47525000D01*
X81120941Y-47524192D01*
X81069591Y-47518235D01*
X81052048Y-47510489D01*
X81029329Y-47505970D01*
X81005006Y-47489718D01*
X80984206Y-47480534D01*
X80969999Y-47466327D01*
X80948223Y-47451777D01*
X80933672Y-47430000D01*
X80919465Y-47415793D01*
X80910280Y-47394991D01*
X80894030Y-47370671D01*
X80889511Y-47347954D01*
X80881764Y-47330408D01*
X80875805Y-47279049D01*
X80875000Y-47275000D01*
X80875000Y-46725000D01*
X80875804Y-46720953D01*
X80881764Y-46669591D01*
X80889511Y-46652043D01*
X80894030Y-46629329D01*
X80910278Y-46605010D01*
X80919465Y-46584206D01*
X80933674Y-46569996D01*
X80948223Y-46548223D01*
X80969996Y-46533674D01*
X80984206Y-46519465D01*
X81005010Y-46510278D01*
X81029329Y-46494030D01*
X81052043Y-46489511D01*
X81069591Y-46481764D01*
X81120952Y-46475805D01*
X81125000Y-46475000D01*
X81525000Y-46475000D01*
X81529047Y-46475805D01*
G37*
G36*
X84012660Y-46476275D02*
G01*
X84074590Y-46484428D01*
X84090167Y-46491692D01*
X84109096Y-46495457D01*
X84134167Y-46512208D01*
X84159955Y-46524234D01*
X84175644Y-46539923D01*
X84196285Y-46553715D01*
X84210076Y-46574355D01*
X84225765Y-46590044D01*
X84237789Y-46615830D01*
X84254543Y-46640904D01*
X84258308Y-46659834D01*
X84265571Y-46675409D01*
X84273722Y-46737326D01*
X84275000Y-46743750D01*
X84275000Y-47256250D01*
X84273722Y-47262674D01*
X84265571Y-47324590D01*
X84258308Y-47340164D01*
X84254543Y-47359096D01*
X84237787Y-47384171D01*
X84225765Y-47409955D01*
X84210078Y-47425641D01*
X84196285Y-47446285D01*
X84175641Y-47460078D01*
X84159955Y-47475765D01*
X84134171Y-47487787D01*
X84109096Y-47504543D01*
X84090164Y-47508308D01*
X84074590Y-47515571D01*
X84012674Y-47523722D01*
X84006250Y-47525000D01*
X83568750Y-47525000D01*
X83562326Y-47523722D01*
X83500409Y-47515571D01*
X83484834Y-47508308D01*
X83465904Y-47504543D01*
X83440830Y-47487789D01*
X83415044Y-47475765D01*
X83399355Y-47460076D01*
X83378715Y-47446285D01*
X83364923Y-47425644D01*
X83349234Y-47409955D01*
X83337208Y-47384167D01*
X83320457Y-47359096D01*
X83316692Y-47340167D01*
X83309428Y-47324590D01*
X83301275Y-47262660D01*
X83300000Y-47256250D01*
X83300000Y-46743750D01*
X83301274Y-46737341D01*
X83309428Y-46675409D01*
X83316692Y-46659830D01*
X83320457Y-46640904D01*
X83337207Y-46615835D01*
X83349234Y-46590044D01*
X83364925Y-46574352D01*
X83378715Y-46553715D01*
X83399352Y-46539925D01*
X83415044Y-46524234D01*
X83440835Y-46512207D01*
X83465904Y-46495457D01*
X83484830Y-46491692D01*
X83500409Y-46484428D01*
X83562341Y-46476274D01*
X83568750Y-46475000D01*
X84006250Y-46475000D01*
X84012660Y-46476275D01*
G37*
G36*
X79879047Y-39475805D02*
G01*
X79930408Y-39481764D01*
X79947954Y-39489511D01*
X79970671Y-39494030D01*
X79994991Y-39510280D01*
X80015793Y-39519465D01*
X80030000Y-39533672D01*
X80051777Y-39548223D01*
X80066327Y-39569999D01*
X80080534Y-39584206D01*
X80089718Y-39605006D01*
X80105970Y-39629329D01*
X80110489Y-39652048D01*
X80118235Y-39669591D01*
X80124192Y-39720940D01*
X80125000Y-39725000D01*
X80125000Y-40275000D01*
X80124192Y-40279059D01*
X80118235Y-40330408D01*
X80110489Y-40347950D01*
X80105970Y-40370671D01*
X80089716Y-40394995D01*
X80080534Y-40415793D01*
X80066329Y-40429997D01*
X80051777Y-40451777D01*
X80029997Y-40466329D01*
X80015793Y-40480534D01*
X79994995Y-40489716D01*
X79970671Y-40505970D01*
X79947950Y-40510489D01*
X79930408Y-40518235D01*
X79879061Y-40524192D01*
X79875000Y-40525000D01*
X79475000Y-40525000D01*
X79470941Y-40524192D01*
X79419591Y-40518235D01*
X79402048Y-40510489D01*
X79379329Y-40505970D01*
X79355006Y-40489718D01*
X79334206Y-40480534D01*
X79319999Y-40466327D01*
X79298223Y-40451777D01*
X79283672Y-40430000D01*
X79269465Y-40415793D01*
X79260280Y-40394991D01*
X79244030Y-40370671D01*
X79239511Y-40347954D01*
X79231764Y-40330408D01*
X79225805Y-40279049D01*
X79225000Y-40275000D01*
X79225000Y-39725000D01*
X79225804Y-39720953D01*
X79231764Y-39669591D01*
X79239511Y-39652043D01*
X79244030Y-39629329D01*
X79260278Y-39605010D01*
X79269465Y-39584206D01*
X79283674Y-39569996D01*
X79298223Y-39548223D01*
X79319996Y-39533674D01*
X79334206Y-39519465D01*
X79355010Y-39510278D01*
X79379329Y-39494030D01*
X79402043Y-39489511D01*
X79419591Y-39481764D01*
X79470952Y-39475805D01*
X79475000Y-39475000D01*
X79875000Y-39475000D01*
X79879047Y-39475805D01*
G37*
G36*
X81529047Y-39475805D02*
G01*
X81580408Y-39481764D01*
X81597954Y-39489511D01*
X81620671Y-39494030D01*
X81644991Y-39510280D01*
X81665793Y-39519465D01*
X81680001Y-39533672D01*
X81701777Y-39548223D01*
X81716326Y-39569997D01*
X81734593Y-39588264D01*
X81776013Y-39588264D01*
X81789927Y-39574349D01*
X81803715Y-39553715D01*
X81824349Y-39539927D01*
X81840042Y-39524235D01*
X81865835Y-39512207D01*
X81890904Y-39495457D01*
X81909830Y-39491692D01*
X81925409Y-39484428D01*
X81987341Y-39476274D01*
X81993750Y-39475000D01*
X82431250Y-39475000D01*
X82437660Y-39476275D01*
X82499590Y-39484428D01*
X82515167Y-39491692D01*
X82534096Y-39495457D01*
X82559167Y-39512208D01*
X82584955Y-39524234D01*
X82600644Y-39539923D01*
X82621285Y-39553715D01*
X82635076Y-39574355D01*
X82650765Y-39590044D01*
X82662789Y-39615830D01*
X82679543Y-39640904D01*
X82683308Y-39659834D01*
X82690571Y-39675409D01*
X82698722Y-39737326D01*
X82700000Y-39743750D01*
X82700000Y-40256250D01*
X82698722Y-40262674D01*
X82690571Y-40324590D01*
X82683308Y-40340164D01*
X82679543Y-40359096D01*
X82662787Y-40384171D01*
X82650765Y-40409955D01*
X82635078Y-40425641D01*
X82621285Y-40446285D01*
X82600641Y-40460078D01*
X82584955Y-40475765D01*
X82559171Y-40487787D01*
X82534096Y-40504543D01*
X82515164Y-40508308D01*
X82499590Y-40515571D01*
X82437674Y-40523722D01*
X82431250Y-40525000D01*
X81993750Y-40525000D01*
X81987326Y-40523722D01*
X81925409Y-40515571D01*
X81909834Y-40508308D01*
X81890904Y-40504543D01*
X81865830Y-40487789D01*
X81840044Y-40475765D01*
X81824355Y-40460076D01*
X81803715Y-40446285D01*
X81789924Y-40425646D01*
X81776013Y-40411735D01*
X81734592Y-40411735D01*
X81716329Y-40429998D01*
X81701777Y-40451777D01*
X81679999Y-40466327D01*
X81665795Y-40480533D01*
X81644995Y-40489716D01*
X81620671Y-40505970D01*
X81597950Y-40510489D01*
X81580408Y-40518235D01*
X81529061Y-40524192D01*
X81525000Y-40525000D01*
X81125000Y-40525000D01*
X81120941Y-40524192D01*
X81069591Y-40518235D01*
X81052048Y-40510489D01*
X81029329Y-40505970D01*
X81005006Y-40489718D01*
X80984206Y-40480534D01*
X80969999Y-40466327D01*
X80948223Y-40451777D01*
X80933672Y-40430000D01*
X80919465Y-40415793D01*
X80910280Y-40394991D01*
X80894030Y-40370671D01*
X80889511Y-40347954D01*
X80881764Y-40330408D01*
X80875805Y-40279049D01*
X80875000Y-40275000D01*
X80875000Y-39725000D01*
X80875804Y-39720953D01*
X80881764Y-39669591D01*
X80889511Y-39652043D01*
X80894030Y-39629329D01*
X80910278Y-39605010D01*
X80919465Y-39584206D01*
X80933674Y-39569996D01*
X80948223Y-39548223D01*
X80969996Y-39533674D01*
X80984206Y-39519465D01*
X81005010Y-39510278D01*
X81029329Y-39494030D01*
X81052043Y-39489511D01*
X81069591Y-39481764D01*
X81120952Y-39475805D01*
X81125000Y-39475000D01*
X81525000Y-39475000D01*
X81529047Y-39475805D01*
G37*
G36*
X84012660Y-39476275D02*
G01*
X84074590Y-39484428D01*
X84090167Y-39491692D01*
X84109096Y-39495457D01*
X84134167Y-39512208D01*
X84159955Y-39524234D01*
X84175644Y-39539923D01*
X84196285Y-39553715D01*
X84210076Y-39574355D01*
X84225765Y-39590044D01*
X84237789Y-39615830D01*
X84254543Y-39640904D01*
X84258308Y-39659834D01*
X84265571Y-39675409D01*
X84273722Y-39737326D01*
X84275000Y-39743750D01*
X84275000Y-40256250D01*
X84273722Y-40262674D01*
X84265571Y-40324590D01*
X84258308Y-40340164D01*
X84254543Y-40359096D01*
X84237787Y-40384171D01*
X84225765Y-40409955D01*
X84210078Y-40425641D01*
X84196285Y-40446285D01*
X84175641Y-40460078D01*
X84159955Y-40475765D01*
X84134171Y-40487787D01*
X84109096Y-40504543D01*
X84090164Y-40508308D01*
X84074590Y-40515571D01*
X84012674Y-40523722D01*
X84006250Y-40525000D01*
X83568750Y-40525000D01*
X83562326Y-40523722D01*
X83500409Y-40515571D01*
X83484834Y-40508308D01*
X83465904Y-40504543D01*
X83440830Y-40487789D01*
X83415044Y-40475765D01*
X83399355Y-40460076D01*
X83378715Y-40446285D01*
X83364923Y-40425644D01*
X83349234Y-40409955D01*
X83337208Y-40384167D01*
X83320457Y-40359096D01*
X83316692Y-40340167D01*
X83309428Y-40324590D01*
X83301275Y-40262660D01*
X83300000Y-40256250D01*
X83300000Y-39743750D01*
X83301274Y-39737341D01*
X83309428Y-39675409D01*
X83316692Y-39659830D01*
X83320457Y-39640904D01*
X83337207Y-39615835D01*
X83349234Y-39590044D01*
X83364925Y-39574352D01*
X83378715Y-39553715D01*
X83399352Y-39539925D01*
X83415044Y-39524234D01*
X83440835Y-39512207D01*
X83465904Y-39495457D01*
X83484830Y-39491692D01*
X83500409Y-39484428D01*
X83562341Y-39476274D01*
X83568750Y-39475000D01*
X84006250Y-39475000D01*
X84012660Y-39476275D01*
G37*
G36*
X82448708Y-31744194D02*
G01*
X82739311Y-31822061D01*
X83017264Y-31937193D01*
X83277812Y-32087620D01*
X83516495Y-32270768D01*
X83729232Y-32483505D01*
X83912380Y-32722188D01*
X84062807Y-32982736D01*
X84177939Y-33260689D01*
X84255806Y-33551292D01*
X84295076Y-33849573D01*
X84295076Y-34150427D01*
X84255806Y-34448708D01*
X84177939Y-34739311D01*
X84062807Y-35017264D01*
X83912380Y-35277812D01*
X83729232Y-35516495D01*
X83516495Y-35729232D01*
X83277812Y-35912380D01*
X83017264Y-36062807D01*
X82739311Y-36177939D01*
X82448708Y-36255806D01*
X82150427Y-36295076D01*
X81849573Y-36295076D01*
X81551292Y-36255806D01*
X81260689Y-36177939D01*
X80982736Y-36062807D01*
X80722188Y-35912380D01*
X80483505Y-35729232D01*
X80270768Y-35516495D01*
X80087620Y-35277812D01*
X79937193Y-35017264D01*
X79822061Y-34739311D01*
X79744194Y-34448708D01*
X79704924Y-34150427D01*
X79704924Y-33849573D01*
X79744194Y-33551292D01*
X79822061Y-33260689D01*
X79937193Y-32982736D01*
X80087620Y-32722188D01*
X80270768Y-32483505D01*
X80483505Y-32270768D01*
X80722188Y-32087620D01*
X80982736Y-31937193D01*
X81260689Y-31822061D01*
X81551292Y-31744194D01*
X81849573Y-31704924D01*
X82150427Y-31704924D01*
X82448708Y-31744194D01*
G37*
M02*
