%TF.GenerationSoftware,KiCad,Pcbnew,10.0.5*%
%TF.CreationDate,2026-07-27T13:36:03-04:00*%
%TF.ProjectId,pumpkin-keychain,70756d70-6b69-46e2-9d6b-657963686169,B*%
%TF.SameCoordinates,Original*%
%TF.FileFunction,Legend,Top*%
%TF.FilePolarity,Positive*%
%FSLAX46Y46*%
G04 Gerber Fmt 4.6, Leading zero omitted, Abs format (unit mm)*
G04 Created by KiCad (PCBNEW 10.0.5) date 2026-07-27 13:36:03*
%MOMM*%
%LPD*%
G01*
G04 APERTURE LIST*
%ADD10C,0.180000*%
%ADD11C,0.160000*%
%ADD12C,0.120000*%
%ADD13C,0.100000*%
G04 APERTURE END LIST*
D10*
X72000000Y-36000000D02*
X67000000Y-50000000D01*
X67000000Y-50000000D02*
X66000000Y-70000000D01*
X66000000Y-70000000D02*
X72000000Y-92000000D01*
X92000000Y-36000000D02*
X97000000Y-50000000D01*
X97000000Y-50000000D02*
X98000000Y-70000000D01*
X98000000Y-70000000D02*
X92000000Y-92000000D01*
D11*
X74000000Y-54000000D02*
X78000000Y-49000000D01*
X78000000Y-49000000D02*
X82000000Y-54000000D01*
X82000000Y-54000000D02*
X74000000Y-54000000D01*
X86000000Y-54000000D02*
X90000000Y-49000000D01*
X90000000Y-49000000D02*
X94000000Y-54000000D01*
X94000000Y-54000000D02*
X86000000Y-54000000D01*
X74000000Y-75000000D02*
X78000000Y-79000000D01*
X78000000Y-79000000D02*
X82000000Y-75000000D01*
X82000000Y-75000000D02*
X86000000Y-79000000D01*
X86000000Y-79000000D02*
X90000000Y-75000000D01*
%TO.C,J1*%
D12*
X77300000Y-90750000D02*
X77300000Y-89050000D01*
X86700000Y-90750000D02*
X86700000Y-89050000D01*
%TO.C,H1*%
D10*
X85500000Y-34000000D02*
G75*
G02*
X78500000Y-34000000I-3500000J0D01*
G01*
X78500000Y-34000000D02*
G75*
G02*
X85500000Y-34000000I3500000J0D01*
G01*
%TO.C,D1*%
D13*
X82800000Y-40900000D02*
X82800000Y-39100000D01*
%TO.C,D2*%
X82800000Y-47900000D02*
X82800000Y-46100000D01*
%TO.C,D3*%
X82800000Y-58900000D02*
X82800000Y-57100000D01*
%TO.C,D4*%
X82800000Y-69900000D02*
X82800000Y-68100000D01*
%TO.C,D5*%
X82800000Y-80900000D02*
X82800000Y-79100000D01*
%TD*%
M02*
