%TF.GenerationSoftware,KiCad,Pcbnew,10.0.5*%
%TF.CreationDate,2026-07-27T15:22:21-04:00*%
%TF.ProjectId,retro-console-keychain,72657472-6f2d-4636-9f6e-736f6c652d6b,B*%
%TF.SameCoordinates,Original*%
%TF.FileFunction,Copper,L1,Top*%
%TF.FilePolarity,Positive*%
%FSLAX46Y46*%
G04 Gerber Fmt 4.6, Leading zero omitted, Abs format (unit mm)*
G04 Created by KiCad (PCBNEW 10.0.5) date 2026-07-27 15:22:21*
%MOMM*%
%LPD*%
G01*
G04 APERTURE LIST*
G04 Aperture macros list*
%AMRoundRect*
0 Rectangle with rounded corners*
0 $1 Rounding radius*
0 $2 $3 $4 $5 $6 $7 $8 $9 X,Y pos of 4 corners*
0 Add a 4 corners polygon primitive as box body*
4,1,4,$2,$3,$4,$5,$6,$7,$8,$9,$2,$3,0*
0 Add four circle primitives for the rounded corners*
1,1,$1+$1,$2,$3*
1,1,$1+$1,$4,$5*
1,1,$1+$1,$6,$7*
1,1,$1+$1,$8,$9*
0 Add four rect primitives between the rounded corners*
20,1,$1+$1,$2,$3,$4,$5,0*
20,1,$1+$1,$4,$5,$6,$7,0*
20,1,$1+$1,$6,$7,$8,$9,0*
20,1,$1+$1,$8,$9,$2,$3,0*%
G04 Aperture macros list end*
%TA.AperFunction,SMDPad,CuDef*%
%ADD10RoundRect,0.175000X-0.175000X-0.425000X0.175000X-0.425000X0.175000X0.425000X-0.175000X0.425000X0*%
%TD*%
%TA.AperFunction,SMDPad,CuDef*%
%ADD11RoundRect,0.190000X0.190000X0.410000X-0.190000X0.410000X-0.190000X-0.410000X0.190000X-0.410000X0*%
%TD*%
%TA.AperFunction,SMDPad,CuDef*%
%ADD12RoundRect,0.200000X0.200000X0.400000X-0.200000X0.400000X-0.200000X-0.400000X0.200000X-0.400000X0*%
%TD*%
%TA.AperFunction,SMDPad,CuDef*%
%ADD13RoundRect,0.175000X0.175000X0.425000X-0.175000X0.425000X-0.175000X-0.425000X0.175000X-0.425000X0*%
%TD*%
%TA.AperFunction,SMDPad,CuDef*%
%ADD14RoundRect,0.190000X-0.190000X-0.410000X0.190000X-0.410000X0.190000X0.410000X-0.190000X0.410000X0*%
%TD*%
%TA.AperFunction,SMDPad,CuDef*%
%ADD15RoundRect,0.200000X-0.200000X-0.400000X0.200000X-0.400000X0.200000X0.400000X-0.200000X0.400000X0*%
%TD*%
%TA.AperFunction,HeatsinkPad*%
%ADD16O,1.100000X1.700000*%
%TD*%
%TA.AperFunction,SMDPad,CuDef*%
%ADD17RoundRect,0.250000X-0.375000X-0.625000X0.375000X-0.625000X0.375000X0.625000X-0.375000X0.625000X0*%
%TD*%
%TA.AperFunction,SMDPad,CuDef*%
%ADD18RoundRect,0.200000X-0.200000X-0.275000X0.200000X-0.275000X0.200000X0.275000X-0.200000X0.275000X0*%
%TD*%
%TA.AperFunction,SMDPad,CuDef*%
%ADD19RoundRect,0.218750X-0.218750X-0.256250X0.218750X-0.256250X0.218750X0.256250X-0.218750X0.256250X0*%
%TD*%
%TA.AperFunction,ViaPad*%
%ADD20C,0.600000*%
%TD*%
%TA.AperFunction,Conductor*%
%ADD21C,0.250000*%
%TD*%
%TA.AperFunction,Conductor*%
%ADD22C,0.300000*%
%TD*%
%TA.AperFunction,Conductor*%
%ADD23C,0.200000*%
%TD*%
G04 APERTURE END LIST*
D10*
%TO.P,J1,A5*%
%TO.N,CC1*%
X81500000Y-87920000D03*
D11*
%TO.P,J1,A9*%
%TO.N,VBUS*%
X83520000Y-87920000D03*
D12*
%TO.P,J1,A12*%
%TO.N,GND*%
X84750000Y-87920000D03*
D13*
%TO.P,J1,B5*%
%TO.N,CC2*%
X82500000Y-87920000D03*
D14*
%TO.P,J1,B9*%
%TO.N,VBUS*%
X80480000Y-87920000D03*
D15*
%TO.P,J1,B12*%
%TO.N,GND*%
X79250000Y-87920000D03*
D16*
%TO.P,J1,SH*%
X77680000Y-88000000D03*
X77680000Y-91800000D03*
X86320000Y-88000000D03*
X86320000Y-91800000D03*
%TD*%
D17*
%TO.P,F1,1*%
%TO.N,VBUS*%
X80600000Y-82000000D03*
%TO.P,F1,2*%
%TO.N,VLED*%
X83400000Y-82000000D03*
%TD*%
D18*
%TO.P,RCC1,1*%
%TO.N,CC1*%
X78825000Y-86000000D03*
%TO.P,RCC1,2*%
%TO.N,GND*%
X77175000Y-86000000D03*
%TD*%
%TO.P,RCC2,1*%
%TO.N,CC2*%
X85175000Y-86000000D03*
%TO.P,RCC2,2*%
%TO.N,GND*%
X86825000Y-86000000D03*
%TD*%
%TO.P,R1,1*%
%TO.N,VLED*%
X79675000Y-40000000D03*
%TO.P,R1,2*%
%TO.N,LED1*%
X81325000Y-40000000D03*
%TD*%
D19*
%TO.P,D1,1,K*%
%TO.N,GND*%
X83787500Y-40000000D03*
%TO.P,D1,2,A*%
%TO.N,LED1*%
X82212500Y-40000000D03*
%TD*%
D18*
%TO.P,R2,1*%
%TO.N,VLED*%
X79675000Y-47000000D03*
%TO.P,R2,2*%
%TO.N,LED2*%
X81325000Y-47000000D03*
%TD*%
D19*
%TO.P,D2,1,K*%
%TO.N,GND*%
X83787500Y-47000000D03*
%TO.P,D2,2,A*%
%TO.N,LED2*%
X82212500Y-47000000D03*
%TD*%
D18*
%TO.P,R3,1*%
%TO.N,VLED*%
X79675000Y-58000000D03*
%TO.P,R3,2*%
%TO.N,LED3*%
X81325000Y-58000000D03*
%TD*%
D19*
%TO.P,D3,1,K*%
%TO.N,GND*%
X83787500Y-58000000D03*
%TO.P,D3,2,A*%
%TO.N,LED3*%
X82212500Y-58000000D03*
%TD*%
D18*
%TO.P,R4,1*%
%TO.N,VLED*%
X79675000Y-69000000D03*
%TO.P,R4,2*%
%TO.N,LED4*%
X81325000Y-69000000D03*
%TD*%
D19*
%TO.P,D4,1,K*%
%TO.N,GND*%
X83787500Y-69000000D03*
%TO.P,D4,2,A*%
%TO.N,LED4*%
X82212500Y-69000000D03*
%TD*%
D18*
%TO.P,R5,1*%
%TO.N,VLED*%
X79675000Y-80000000D03*
%TO.P,R5,2*%
%TO.N,LED5*%
X81325000Y-80000000D03*
%TD*%
D19*
%TO.P,D5,1,K*%
%TO.N,GND*%
X83787500Y-80000000D03*
%TO.P,D5,2,A*%
%TO.N,LED5*%
X82212500Y-80000000D03*
%TD*%
D20*
%TO.N,VBUS*%
X80480000Y-87920000D03*
X83520000Y-87920000D03*
X80600000Y-81200000D03*
%TO.N,GND*%
X79250000Y-87920000D03*
X86200000Y-87920000D03*
%TD*%
%TO.N,VBUS*%
D21*
X80600000Y-81200000D02*
X80600000Y-82000000D01*
%TO.N,VLED*%
D22*
X83400000Y-82000000D02*
X84500000Y-82000000D01*
X84500000Y-82000000D02*
X84500000Y-83500000D01*
X84500000Y-83500000D02*
X78800000Y-83500000D01*
X78800000Y-83500000D02*
X78800000Y-40000000D01*
%TO.N,GND*%
X86200000Y-40000000D02*
X86200000Y-87920000D01*
D23*
X84750000Y-87920000D02*
X86200000Y-87920000D01*
X86320000Y-88000000D02*
X86200000Y-87920000D01*
%TO.N,CC1*%
X81500000Y-87920000D02*
X81500000Y-86000000D01*
X81500000Y-86000000D02*
X78825000Y-86000000D01*
%TO.N,CC2*%
X82500000Y-87920000D02*
X82500000Y-86000000D01*
X82500000Y-86000000D02*
X85175000Y-86000000D01*
%TO.N,GND*%
X77175000Y-86000000D02*
X79250000Y-87920000D01*
X86825000Y-86000000D02*
X86200000Y-87920000D01*
%TO.N,VLED*%
D21*
X78800000Y-40000000D02*
X79675000Y-40000000D01*
%TO.N,LED1*%
D23*
X81325000Y-40000000D02*
X82212500Y-40000000D01*
%TO.N,GND*%
X83787500Y-40000000D02*
X86200000Y-40000000D01*
%TO.N,VLED*%
D21*
X78800000Y-47000000D02*
X79675000Y-47000000D01*
%TO.N,LED2*%
D23*
X81325000Y-47000000D02*
X82212500Y-47000000D01*
%TO.N,GND*%
X83787500Y-47000000D02*
X86200000Y-47000000D01*
%TO.N,VLED*%
D21*
X78800000Y-58000000D02*
X79675000Y-58000000D01*
%TO.N,LED3*%
D23*
X81325000Y-58000000D02*
X82212500Y-58000000D01*
%TO.N,GND*%
X83787500Y-58000000D02*
X86200000Y-58000000D01*
%TO.N,VLED*%
D21*
X78800000Y-69000000D02*
X79675000Y-69000000D01*
%TO.N,LED4*%
D23*
X81325000Y-69000000D02*
X82212500Y-69000000D01*
%TO.N,GND*%
X83787500Y-69000000D02*
X86200000Y-69000000D01*
%TO.N,VLED*%
D21*
X78800000Y-80000000D02*
X79675000Y-80000000D01*
%TO.N,LED5*%
D23*
X81325000Y-80000000D02*
X82212500Y-80000000D01*
%TO.N,GND*%
X83787500Y-80000000D02*
X86200000Y-80000000D01*
%TD*%
M02*
