%TF.GenerationSoftware,KiCad,Pcbnew,10.0.5*%
%TF.CreationDate,2026-07-27T14:55:35-04:00*%
%TF.ProjectId,retro-console-keychain,72657472-6f2d-4636-9f6e-736f6c652d6b,B*%
%TF.SameCoordinates,Original*%
%TF.FileFunction,Soldermask,Bot*%
%TF.FilePolarity,Negative*%
%FSLAX46Y46*%
G04 Gerber Fmt 4.6, Leading zero omitted, Abs format (unit mm)*
G04 Created by KiCad (PCBNEW 10.0.5) date 2026-07-27 14:55:35*
%MOMM*%
%LPD*%
G01*
G04 APERTURE LIST*
G04 APERTURE END LIST*
G36*
X77748858Y-90905133D02*
G01*
X77758316Y-90905133D01*
X77785563Y-90912433D01*
X77854099Y-90926066D01*
X77886448Y-90939465D01*
X77909610Y-90945672D01*
X77930377Y-90957662D01*
X77962722Y-90971060D01*
X78020816Y-91009877D01*
X78045257Y-91023988D01*
X78051946Y-91030677D01*
X78060481Y-91036380D01*
X78143619Y-91119518D01*
X78149321Y-91128052D01*
X78156012Y-91134743D01*
X78170124Y-91159186D01*
X78208939Y-91217277D01*
X78222335Y-91249618D01*
X78234328Y-91270390D01*
X78240535Y-91293555D01*
X78253933Y-91325900D01*
X78267563Y-91394426D01*
X78274867Y-91421684D01*
X78275791Y-91435795D01*
X78277110Y-91442422D01*
X78279758Y-91496311D01*
X78280000Y-91500000D01*
X78280000Y-92100000D01*
X78279758Y-92103691D01*
X78277110Y-92157577D01*
X78275791Y-92164203D01*
X78274867Y-92178316D01*
X78267562Y-92205576D01*
X78253933Y-92274099D01*
X78240535Y-92306441D01*
X78234328Y-92329610D01*
X78222334Y-92350383D01*
X78208939Y-92382722D01*
X78170128Y-92440805D01*
X78156012Y-92465257D01*
X78149319Y-92471949D01*
X78143619Y-92480481D01*
X78060481Y-92563619D01*
X78051949Y-92569319D01*
X78045257Y-92576012D01*
X78020805Y-92590128D01*
X77962722Y-92628939D01*
X77930383Y-92642334D01*
X77909610Y-92654328D01*
X77886441Y-92660535D01*
X77854099Y-92673933D01*
X77785569Y-92687564D01*
X77758316Y-92694867D01*
X77748858Y-92694867D01*
X77738788Y-92696870D01*
X77621212Y-92696870D01*
X77611142Y-92694867D01*
X77601684Y-92694867D01*
X77574432Y-92687564D01*
X77505900Y-92673933D01*
X77473555Y-92660535D01*
X77450390Y-92654328D01*
X77429618Y-92642335D01*
X77397277Y-92628939D01*
X77339186Y-92590124D01*
X77314743Y-92576012D01*
X77308052Y-92569321D01*
X77299518Y-92563619D01*
X77216380Y-92480481D01*
X77210677Y-92471946D01*
X77203988Y-92465257D01*
X77189877Y-92440816D01*
X77151060Y-92382722D01*
X77137662Y-92350377D01*
X77125672Y-92329610D01*
X77119465Y-92306448D01*
X77106066Y-92274099D01*
X77092433Y-92205562D01*
X77085133Y-92178316D01*
X77084208Y-92164210D01*
X77082889Y-92157577D01*
X77080241Y-92103686D01*
X77080000Y-92100000D01*
X77080000Y-91500000D01*
X77080241Y-91496316D01*
X77082889Y-91442422D01*
X77084208Y-91435787D01*
X77085133Y-91421684D01*
X77092432Y-91394440D01*
X77106066Y-91325900D01*
X77119466Y-91293548D01*
X77125672Y-91270390D01*
X77137660Y-91249624D01*
X77151060Y-91217277D01*
X77189881Y-91159175D01*
X77203988Y-91134743D01*
X77210675Y-91128055D01*
X77216380Y-91119518D01*
X77299518Y-91036380D01*
X77308055Y-91030675D01*
X77314743Y-91023988D01*
X77339175Y-91009881D01*
X77397277Y-90971060D01*
X77429624Y-90957660D01*
X77450390Y-90945672D01*
X77473548Y-90939466D01*
X77505900Y-90926066D01*
X77574437Y-90912433D01*
X77601684Y-90905133D01*
X77611142Y-90905133D01*
X77621212Y-90903130D01*
X77738788Y-90903130D01*
X77748858Y-90905133D01*
G37*
G36*
X86388858Y-90905133D02*
G01*
X86398316Y-90905133D01*
X86425563Y-90912433D01*
X86494099Y-90926066D01*
X86526448Y-90939465D01*
X86549610Y-90945672D01*
X86570377Y-90957662D01*
X86602722Y-90971060D01*
X86660816Y-91009877D01*
X86685257Y-91023988D01*
X86691946Y-91030677D01*
X86700481Y-91036380D01*
X86783619Y-91119518D01*
X86789321Y-91128052D01*
X86796012Y-91134743D01*
X86810124Y-91159186D01*
X86848939Y-91217277D01*
X86862335Y-91249618D01*
X86874328Y-91270390D01*
X86880535Y-91293555D01*
X86893933Y-91325900D01*
X86907563Y-91394426D01*
X86914867Y-91421684D01*
X86915791Y-91435795D01*
X86917110Y-91442422D01*
X86919758Y-91496311D01*
X86920000Y-91500000D01*
X86920000Y-92100000D01*
X86919758Y-92103691D01*
X86917110Y-92157577D01*
X86915791Y-92164203D01*
X86914867Y-92178316D01*
X86907562Y-92205576D01*
X86893933Y-92274099D01*
X86880535Y-92306441D01*
X86874328Y-92329610D01*
X86862334Y-92350383D01*
X86848939Y-92382722D01*
X86810128Y-92440805D01*
X86796012Y-92465257D01*
X86789319Y-92471949D01*
X86783619Y-92480481D01*
X86700481Y-92563619D01*
X86691949Y-92569319D01*
X86685257Y-92576012D01*
X86660805Y-92590128D01*
X86602722Y-92628939D01*
X86570383Y-92642334D01*
X86549610Y-92654328D01*
X86526441Y-92660535D01*
X86494099Y-92673933D01*
X86425569Y-92687564D01*
X86398316Y-92694867D01*
X86388858Y-92694867D01*
X86378788Y-92696870D01*
X86261212Y-92696870D01*
X86251142Y-92694867D01*
X86241684Y-92694867D01*
X86214432Y-92687564D01*
X86145900Y-92673933D01*
X86113555Y-92660535D01*
X86090390Y-92654328D01*
X86069618Y-92642335D01*
X86037277Y-92628939D01*
X85979186Y-92590124D01*
X85954743Y-92576012D01*
X85948052Y-92569321D01*
X85939518Y-92563619D01*
X85856380Y-92480481D01*
X85850677Y-92471946D01*
X85843988Y-92465257D01*
X85829877Y-92440816D01*
X85791060Y-92382722D01*
X85777662Y-92350377D01*
X85765672Y-92329610D01*
X85759465Y-92306448D01*
X85746066Y-92274099D01*
X85732433Y-92205562D01*
X85725133Y-92178316D01*
X85724208Y-92164210D01*
X85722889Y-92157577D01*
X85720241Y-92103686D01*
X85720000Y-92100000D01*
X85720000Y-91500000D01*
X85720241Y-91496316D01*
X85722889Y-91442422D01*
X85724208Y-91435787D01*
X85725133Y-91421684D01*
X85732432Y-91394440D01*
X85746066Y-91325900D01*
X85759466Y-91293548D01*
X85765672Y-91270390D01*
X85777660Y-91249624D01*
X85791060Y-91217277D01*
X85829881Y-91159175D01*
X85843988Y-91134743D01*
X85850675Y-91128055D01*
X85856380Y-91119518D01*
X85939518Y-91036380D01*
X85948055Y-91030675D01*
X85954743Y-91023988D01*
X85979175Y-91009881D01*
X86037277Y-90971060D01*
X86069624Y-90957660D01*
X86090390Y-90945672D01*
X86113548Y-90939466D01*
X86145900Y-90926066D01*
X86214437Y-90912433D01*
X86241684Y-90905133D01*
X86251142Y-90905133D01*
X86261212Y-90903130D01*
X86378788Y-90903130D01*
X86388858Y-90905133D01*
G37*
G36*
X77748858Y-87105133D02*
G01*
X77758316Y-87105133D01*
X77785563Y-87112433D01*
X77854099Y-87126066D01*
X77886448Y-87139465D01*
X77909610Y-87145672D01*
X77930377Y-87157662D01*
X77962722Y-87171060D01*
X78020816Y-87209877D01*
X78045257Y-87223988D01*
X78051946Y-87230677D01*
X78060481Y-87236380D01*
X78143619Y-87319518D01*
X78149321Y-87328052D01*
X78156012Y-87334743D01*
X78170124Y-87359186D01*
X78208939Y-87417277D01*
X78222335Y-87449618D01*
X78234328Y-87470390D01*
X78240535Y-87493555D01*
X78253933Y-87525900D01*
X78267563Y-87594426D01*
X78274867Y-87621684D01*
X78275791Y-87635795D01*
X78277110Y-87642422D01*
X78279758Y-87696311D01*
X78280000Y-87700000D01*
X78280000Y-88300000D01*
X78279758Y-88303691D01*
X78277110Y-88357577D01*
X78275791Y-88364203D01*
X78274867Y-88378316D01*
X78267562Y-88405576D01*
X78253933Y-88474099D01*
X78240535Y-88506441D01*
X78234328Y-88529610D01*
X78222334Y-88550383D01*
X78208939Y-88582722D01*
X78170128Y-88640805D01*
X78156012Y-88665257D01*
X78149319Y-88671949D01*
X78143619Y-88680481D01*
X78060481Y-88763619D01*
X78051949Y-88769319D01*
X78045257Y-88776012D01*
X78020805Y-88790128D01*
X77962722Y-88828939D01*
X77930383Y-88842334D01*
X77909610Y-88854328D01*
X77886441Y-88860535D01*
X77854099Y-88873933D01*
X77785569Y-88887564D01*
X77758316Y-88894867D01*
X77748858Y-88894867D01*
X77738788Y-88896870D01*
X77621212Y-88896870D01*
X77611142Y-88894867D01*
X77601684Y-88894867D01*
X77574432Y-88887564D01*
X77505900Y-88873933D01*
X77473555Y-88860535D01*
X77450390Y-88854328D01*
X77429618Y-88842335D01*
X77397277Y-88828939D01*
X77339186Y-88790124D01*
X77314743Y-88776012D01*
X77308052Y-88769321D01*
X77299518Y-88763619D01*
X77216380Y-88680481D01*
X77210677Y-88671946D01*
X77203988Y-88665257D01*
X77189877Y-88640816D01*
X77151060Y-88582722D01*
X77137662Y-88550377D01*
X77125672Y-88529610D01*
X77119465Y-88506448D01*
X77106066Y-88474099D01*
X77092433Y-88405562D01*
X77085133Y-88378316D01*
X77084208Y-88364210D01*
X77082889Y-88357577D01*
X77080241Y-88303686D01*
X77080000Y-88300000D01*
X77080000Y-87700000D01*
X77080241Y-87696316D01*
X77082889Y-87642422D01*
X77084208Y-87635787D01*
X77085133Y-87621684D01*
X77092432Y-87594440D01*
X77106066Y-87525900D01*
X77119466Y-87493548D01*
X77125672Y-87470390D01*
X77137660Y-87449624D01*
X77151060Y-87417277D01*
X77189881Y-87359175D01*
X77203988Y-87334743D01*
X77210675Y-87328055D01*
X77216380Y-87319518D01*
X77299518Y-87236380D01*
X77308055Y-87230675D01*
X77314743Y-87223988D01*
X77339175Y-87209881D01*
X77397277Y-87171060D01*
X77429624Y-87157660D01*
X77450390Y-87145672D01*
X77473548Y-87139466D01*
X77505900Y-87126066D01*
X77574437Y-87112433D01*
X77601684Y-87105133D01*
X77611142Y-87105133D01*
X77621212Y-87103130D01*
X77738788Y-87103130D01*
X77748858Y-87105133D01*
G37*
G36*
X86388858Y-87105133D02*
G01*
X86398316Y-87105133D01*
X86425563Y-87112433D01*
X86494099Y-87126066D01*
X86526448Y-87139465D01*
X86549610Y-87145672D01*
X86570377Y-87157662D01*
X86602722Y-87171060D01*
X86660816Y-87209877D01*
X86685257Y-87223988D01*
X86691946Y-87230677D01*
X86700481Y-87236380D01*
X86783619Y-87319518D01*
X86789321Y-87328052D01*
X86796012Y-87334743D01*
X86810124Y-87359186D01*
X86848939Y-87417277D01*
X86862335Y-87449618D01*
X86874328Y-87470390D01*
X86880535Y-87493555D01*
X86893933Y-87525900D01*
X86907563Y-87594426D01*
X86914867Y-87621684D01*
X86915791Y-87635795D01*
X86917110Y-87642422D01*
X86919758Y-87696311D01*
X86920000Y-87700000D01*
X86920000Y-88300000D01*
X86919758Y-88303691D01*
X86917110Y-88357577D01*
X86915791Y-88364203D01*
X86914867Y-88378316D01*
X86907562Y-88405576D01*
X86893933Y-88474099D01*
X86880535Y-88506441D01*
X86874328Y-88529610D01*
X86862334Y-88550383D01*
X86848939Y-88582722D01*
X86810128Y-88640805D01*
X86796012Y-88665257D01*
X86789319Y-88671949D01*
X86783619Y-88680481D01*
X86700481Y-88763619D01*
X86691949Y-88769319D01*
X86685257Y-88776012D01*
X86660805Y-88790128D01*
X86602722Y-88828939D01*
X86570383Y-88842334D01*
X86549610Y-88854328D01*
X86526441Y-88860535D01*
X86494099Y-88873933D01*
X86425569Y-88887564D01*
X86398316Y-88894867D01*
X86388858Y-88894867D01*
X86378788Y-88896870D01*
X86261212Y-88896870D01*
X86251142Y-88894867D01*
X86241684Y-88894867D01*
X86214432Y-88887564D01*
X86145900Y-88873933D01*
X86113555Y-88860535D01*
X86090390Y-88854328D01*
X86069618Y-88842335D01*
X86037277Y-88828939D01*
X85979186Y-88790124D01*
X85954743Y-88776012D01*
X85948052Y-88769321D01*
X85939518Y-88763619D01*
X85856380Y-88680481D01*
X85850677Y-88671946D01*
X85843988Y-88665257D01*
X85829877Y-88640816D01*
X85791060Y-88582722D01*
X85777662Y-88550377D01*
X85765672Y-88529610D01*
X85759465Y-88506448D01*
X85746066Y-88474099D01*
X85732433Y-88405562D01*
X85725133Y-88378316D01*
X85724208Y-88364210D01*
X85722889Y-88357577D01*
X85720241Y-88303686D01*
X85720000Y-88300000D01*
X85720000Y-87700000D01*
X85720241Y-87696316D01*
X85722889Y-87642422D01*
X85724208Y-87635787D01*
X85725133Y-87621684D01*
X85732432Y-87594440D01*
X85746066Y-87525900D01*
X85759466Y-87493548D01*
X85765672Y-87470390D01*
X85777660Y-87449624D01*
X85791060Y-87417277D01*
X85829881Y-87359175D01*
X85843988Y-87334743D01*
X85850675Y-87328055D01*
X85856380Y-87319518D01*
X85939518Y-87236380D01*
X85948055Y-87230675D01*
X85954743Y-87223988D01*
X85979175Y-87209881D01*
X86037277Y-87171060D01*
X86069624Y-87157660D01*
X86090390Y-87145672D01*
X86113548Y-87139466D01*
X86145900Y-87126066D01*
X86214437Y-87112433D01*
X86241684Y-87105133D01*
X86251142Y-87105133D01*
X86261212Y-87103130D01*
X86378788Y-87103130D01*
X86388858Y-87105133D01*
G37*
G36*
X82448708Y-31744194D02*
G01*
X82739311Y-31822061D01*
X83017264Y-31937193D01*
X83277812Y-32087620D01*
X83516495Y-32270768D01*
X83729232Y-32483505D01*
X83912380Y-32722188D01*
X84062807Y-32982736D01*
X84177939Y-33260689D01*
X84255806Y-33551292D01*
X84295076Y-33849573D01*
X84295076Y-34150427D01*
X84255806Y-34448708D01*
X84177939Y-34739311D01*
X84062807Y-35017264D01*
X83912380Y-35277812D01*
X83729232Y-35516495D01*
X83516495Y-35729232D01*
X83277812Y-35912380D01*
X83017264Y-36062807D01*
X82739311Y-36177939D01*
X82448708Y-36255806D01*
X82150427Y-36295076D01*
X81849573Y-36295076D01*
X81551292Y-36255806D01*
X81260689Y-36177939D01*
X80982736Y-36062807D01*
X80722188Y-35912380D01*
X80483505Y-35729232D01*
X80270768Y-35516495D01*
X80087620Y-35277812D01*
X79937193Y-35017264D01*
X79822061Y-34739311D01*
X79744194Y-34448708D01*
X79704924Y-34150427D01*
X79704924Y-33849573D01*
X79744194Y-33551292D01*
X79822061Y-33260689D01*
X79937193Y-32982736D01*
X80087620Y-32722188D01*
X80270768Y-32483505D01*
X80483505Y-32270768D01*
X80722188Y-32087620D01*
X80982736Y-31937193D01*
X81260689Y-31822061D01*
X81551292Y-31744194D01*
X81849573Y-31704924D01*
X82150427Y-31704924D01*
X82448708Y-31744194D01*
G37*
M02*
