%TF.GenerationSoftware,KiCad,Pcbnew,10.0.5*%
%TF.CreationDate,2026-07-27T14:55:35-04:00*%
%TF.ProjectId,retro-console-keychain,72657472-6f2d-4636-9f6e-736f6c652d6b,B*%
%TF.SameCoordinates,Original*%
%TF.FileFunction,Legend,Top*%
%TF.FilePolarity,Positive*%
%FSLAX46Y46*%
G04 Gerber Fmt 4.6, Leading zero omitted, Abs format (unit mm)*
G04 Created by KiCad (PCBNEW 10.0.5) date 2026-07-27 14:55:35*
%MOMM*%
%LPD*%
G01*
G04 APERTURE LIST*
%ADD10C,0.180000*%
%ADD11C,0.160000*%
%ADD12C,0.120000*%
%ADD13C,0.100000*%
G04 APERTURE END LIST*
D10*
X64000000Y-43000000D02*
X76000000Y-43000000D01*
X76000000Y-56000000D01*
X64000000Y-56000000D01*
X64000000Y-43000000D01*
D11*
X66000000Y-54000000D02*
X68000000Y-52000000D01*
X68000000Y-52000000D02*
X70000000Y-54000000D01*
X71000000Y-54000000D02*
X73000000Y-52000000D01*
X73000000Y-52000000D02*
X75000000Y-54000000D01*
X67000000Y-58000000D02*
X73000000Y-58000000D01*
D10*
X72000000Y-68000000D02*
X72000000Y-78000000D01*
X67000000Y-73000000D02*
X77000000Y-73000000D01*
X93000000Y-70000000D02*
G75*
G02*
X89000000Y-70000000I-2000000J0D01*
G01*
X89000000Y-70000000D02*
G75*
G02*
X93000000Y-70000000I2000000J0D01*
G01*
X88000000Y-77000000D02*
G75*
G02*
X84000000Y-77000000I-2000000J0D01*
G01*
X84000000Y-77000000D02*
G75*
G02*
X88000000Y-77000000I2000000J0D01*
G01*
%TO.C,J1*%
D12*
X77300000Y-90750000D02*
X77300000Y-89050000D01*
X86700000Y-90750000D02*
X86700000Y-89050000D01*
%TO.C,H1*%
D10*
X85500000Y-34000000D02*
G75*
G02*
X78500000Y-34000000I-3500000J0D01*
G01*
X78500000Y-34000000D02*
G75*
G02*
X85500000Y-34000000I3500000J0D01*
G01*
%TO.C,D1*%
D13*
X82800000Y-40900000D02*
X82800000Y-39100000D01*
%TO.C,D2*%
X82800000Y-47900000D02*
X82800000Y-46100000D01*
%TO.C,D3*%
X82800000Y-58900000D02*
X82800000Y-57100000D01*
%TO.C,D4*%
X82800000Y-69900000D02*
X82800000Y-68100000D01*
%TO.C,D5*%
X82800000Y-80900000D02*
X82800000Y-79100000D01*
%TD*%
M02*
