%TF.GenerationSoftware,KiCad,Pcbnew,10.0.5*%
%TF.CreationDate,2026-07-27T12:32:41-04:00*%
%TF.ProjectId,lightning-bolt-keychain,6c696768-746e-4696-9e67-2d626f6c742d,B*%
%TF.SameCoordinates,Original*%
%TF.FileFunction,Copper,L1,Top*%
%TF.FilePolarity,Positive*%
%FSLAX46Y46*%
G04 Gerber Fmt 4.6, Leading zero omitted, Abs format (unit mm)*
G04 Created by KiCad (PCBNEW 10.0.5) date 2026-07-27 12:32:41*
%MOMM*%
%LPD*%
G01*
G04 APERTURE LIST*
G04 Aperture macros list*
%AMRoundRect*
0 Rectangle with rounded corners*
0 $1 Rounding radius*
0 $2 $3 $4 $5 $6 $7 $8 $9 X,Y pos of 4 corners*
0 Add a 4 corners polygon primitive as box body*
4,1,4,$2,$3,$4,$5,$6,$7,$8,$9,$2,$3,0*
0 Add four circle primitives for the rounded corners*
1,1,$1+$1,$2,$3*
1,1,$1+$1,$4,$5*
1,1,$1+$1,$6,$7*
1,1,$1+$1,$8,$9*
0 Add four rect primitives between the rounded corners*
20,1,$1+$1,$2,$3,$4,$5,0*
20,1,$1+$1,$4,$5,$6,$7,0*
20,1,$1+$1,$6,$7,$8,$9,0*
20,1,$1+$1,$8,$9,$2,$3,0*%
G04 Aperture macros list end*
%TA.AperFunction,SMDPad,CuDef*%
%ADD10RoundRect,0.175000X-0.175000X-0.425000X0.175000X-0.425000X0.175000X0.425000X-0.175000X0.425000X0*%
%TD*%
%TA.AperFunction,SMDPad,CuDef*%
%ADD11RoundRect,0.190000X0.190000X0.410000X-0.190000X0.410000X-0.190000X-0.410000X0.190000X-0.410000X0*%
%TD*%
%TA.AperFunction,SMDPad,CuDef*%
%ADD12RoundRect,0.200000X0.200000X0.400000X-0.200000X0.400000X-0.200000X-0.400000X0.200000X-0.400000X0*%
%TD*%
%TA.AperFunction,SMDPad,CuDef*%
%ADD13RoundRect,0.175000X0.175000X0.425000X-0.175000X0.425000X-0.175000X-0.425000X0.175000X-0.425000X0*%
%TD*%
%TA.AperFunction,SMDPad,CuDef*%
%ADD14RoundRect,0.190000X-0.190000X-0.410000X0.190000X-0.410000X0.190000X0.410000X-0.190000X0.410000X0*%
%TD*%
%TA.AperFunction,SMDPad,CuDef*%
%ADD15RoundRect,0.200000X-0.200000X-0.400000X0.200000X-0.400000X0.200000X0.400000X-0.200000X0.400000X0*%
%TD*%
%TA.AperFunction,HeatsinkPad*%
%ADD16O,1.100000X1.700000*%
%TD*%
%TA.AperFunction,SMDPad,CuDef*%
%ADD17RoundRect,0.250000X-0.375000X-0.625000X0.375000X-0.625000X0.375000X0.625000X-0.375000X0.625000X0*%
%TD*%
%TA.AperFunction,ComponentPad*%
%ADD18C,10.000000*%
%TD*%
%TA.AperFunction,SMDPad,CuDef*%
%ADD19RoundRect,0.200000X-0.200000X-0.275000X0.200000X-0.275000X0.200000X0.275000X-0.200000X0.275000X0*%
%TD*%
%TA.AperFunction,SMDPad,CuDef*%
%ADD20RoundRect,0.218750X-0.218750X-0.256250X0.218750X-0.256250X0.218750X0.256250X-0.218750X0.256250X0*%
%TD*%
%TA.AperFunction,Conductor*%
%ADD21C,0.200000*%
%TD*%
%TA.AperFunction,Conductor*%
%ADD22C,0.300000*%
%TD*%
%TA.AperFunction,Conductor*%
%ADD23C,0.250000*%
%TD*%
G04 APERTURE END LIST*
D10*
%TO.P,J1,A5*%
%TO.N,CC1*%
X81500000Y-112920000D03*
D11*
%TO.P,J1,A9*%
%TO.N,VBUS*%
X83520000Y-112920000D03*
D12*
%TO.P,J1,A12*%
%TO.N,GND*%
X84750000Y-112920000D03*
D13*
%TO.P,J1,B5*%
%TO.N,CC2*%
X82500000Y-112920000D03*
D14*
%TO.P,J1,B9*%
%TO.N,VBUS*%
X80480000Y-112920000D03*
D15*
%TO.P,J1,B12*%
%TO.N,GND*%
X79250000Y-112920000D03*
D16*
%TO.P,J1,SH*%
X77680000Y-113000000D03*
X77680000Y-116800000D03*
X86320000Y-113000000D03*
X86320000Y-116800000D03*
%TD*%
D17*
%TO.P,F1,1*%
%TO.N,VBUS*%
X80600000Y-108000000D03*
%TO.P,F1,2*%
%TO.N,VLED*%
X83400000Y-108000000D03*
%TD*%
D18*
%TO.P,H1,1*%
%TO.N,GND*%
X94000000Y-29000000D03*
%TD*%
D19*
%TO.P,RCC1,1*%
%TO.N,CC1*%
X75825000Y-115000000D03*
%TO.P,RCC1,2*%
%TO.N,GND*%
X74175000Y-115000000D03*
%TD*%
%TO.P,RCC2,1*%
%TO.N,CC2*%
X88175000Y-115000000D03*
%TO.P,RCC2,2*%
%TO.N,GND*%
X89825000Y-115000000D03*
%TD*%
%TO.P,R1,1*%
%TO.N,VLED*%
X89175000Y-38000000D03*
%TO.P,R1,2*%
%TO.N,LED1*%
X90825000Y-38000000D03*
%TD*%
D20*
%TO.P,D1,1,K*%
%TO.N,GND*%
X93787500Y-38000000D03*
%TO.P,D1,2,A*%
%TO.N,LED1*%
X92212500Y-38000000D03*
%TD*%
D19*
%TO.P,R2,1*%
%TO.N,VLED*%
X89175000Y-58000000D03*
%TO.P,R2,2*%
%TO.N,LED2*%
X90825000Y-58000000D03*
%TD*%
D20*
%TO.P,D2,1,K*%
%TO.N,GND*%
X93787500Y-58000000D03*
%TO.P,D2,2,A*%
%TO.N,LED2*%
X92212500Y-58000000D03*
%TD*%
D19*
%TO.P,R3,1*%
%TO.N,VLED*%
X89175000Y-70000000D03*
%TO.P,R3,2*%
%TO.N,LED3*%
X90825000Y-70000000D03*
%TD*%
D20*
%TO.P,D3,1,K*%
%TO.N,GND*%
X93787500Y-70000000D03*
%TO.P,D3,2,A*%
%TO.N,LED3*%
X92212500Y-70000000D03*
%TD*%
D19*
%TO.P,R4,1*%
%TO.N,VLED*%
X89175000Y-89000000D03*
%TO.P,R4,2*%
%TO.N,LED4*%
X90825000Y-89000000D03*
%TD*%
D20*
%TO.P,D4,1,K*%
%TO.N,GND*%
X93787500Y-89000000D03*
%TO.P,D4,2,A*%
%TO.N,LED4*%
X92212500Y-89000000D03*
%TD*%
D19*
%TO.P,R5,1*%
%TO.N,VLED*%
X89175000Y-101000000D03*
%TO.P,R5,2*%
%TO.N,LED5*%
X90825000Y-101000000D03*
%TD*%
D20*
%TO.P,D5,1,K*%
%TO.N,GND*%
X93787500Y-101000000D03*
%TO.P,D5,2,A*%
%TO.N,LED5*%
X92212500Y-101000000D03*
%TD*%
%TO.N,VBUS*%
D21*
X80480000Y-112920000D02*
X80480000Y-110400000D01*
X80480000Y-110400000D02*
X80600000Y-110400000D01*
X83520000Y-112920000D02*
X83520000Y-110800000D01*
X83520000Y-110800000D02*
X80600000Y-110800000D01*
D22*
X80600000Y-110800000D02*
X80600000Y-108000000D01*
%TO.N,VLED*%
X83400000Y-108000000D02*
X83400000Y-105300000D01*
X83400000Y-105300000D02*
X88000000Y-105300000D01*
X88000000Y-105300000D02*
X88000000Y-38000000D01*
D23*
X88000000Y-38000000D02*
X89175000Y-38000000D01*
X88000000Y-58000000D02*
X89175000Y-58000000D01*
X88000000Y-70000000D02*
X89175000Y-70000000D01*
X88000000Y-89000000D02*
X89175000Y-89000000D01*
X88000000Y-101000000D02*
X89175000Y-101000000D01*
%TO.N,LED1*%
D21*
X90825000Y-38000000D02*
X92212500Y-38000000D01*
%TO.N,LED2*%
X90825000Y-58000000D02*
X92212500Y-58000000D01*
%TO.N,LED3*%
X90825000Y-70000000D02*
X92212500Y-70000000D01*
%TO.N,LED4*%
X90825000Y-89000000D02*
X92212500Y-89000000D01*
%TO.N,LED5*%
X90825000Y-101000000D02*
X92212500Y-101000000D01*
%TO.N,GND*%
D22*
X100000000Y-38000000D02*
X100000000Y-111000000D01*
D21*
X93787500Y-38000000D02*
X100000000Y-38000000D01*
X93787500Y-58000000D02*
X100000000Y-58000000D01*
X93787500Y-70000000D02*
X100000000Y-70000000D01*
X93787500Y-89000000D02*
X100000000Y-89000000D01*
X93787500Y-101000000D02*
X100000000Y-101000000D01*
D23*
X94000000Y-29000000D02*
X100000000Y-38000000D01*
D21*
X84750000Y-112920000D02*
X86300000Y-112920000D01*
X86300000Y-112920000D02*
X86300000Y-113700000D01*
X86300000Y-113700000D02*
X91500000Y-113700000D01*
D22*
X100000000Y-111000000D02*
X100000000Y-118000000D01*
D21*
X79250000Y-112920000D02*
X77500000Y-112920000D01*
X77500000Y-112920000D02*
X73500000Y-112920000D01*
X73500000Y-112920000D02*
X73500000Y-118000000D01*
X86320000Y-113000000D02*
X86300000Y-112920000D01*
X86320000Y-116800000D02*
X100000000Y-118000000D01*
X77680000Y-113000000D02*
X77500000Y-112920000D01*
X77680000Y-116800000D02*
X73500000Y-118000000D01*
%TO.N,CC1*%
X81500000Y-112920000D02*
X81500000Y-115000000D01*
X81500000Y-115000000D02*
X75825000Y-115000000D01*
%TO.N,CC2*%
X82500000Y-112920000D02*
X82500000Y-115000000D01*
X82500000Y-115000000D02*
X88175000Y-115000000D01*
%TO.N,GND*%
X74175000Y-115000000D02*
X73500000Y-118000000D01*
X89825000Y-115000000D02*
X100000000Y-118000000D01*
X91500000Y-113700000D02*
X91500000Y-118000000D01*
X91500000Y-118000000D02*
X100000000Y-118000000D01*
X73500000Y-118000000D02*
X100000000Y-118000000D01*
%TD*%
M02*
